<svg width="30" height="26" viewBox="0 0 30 26" fill="none" xmlns="http://www.w3.org/2000/svg">
  <path fill-rule="evenodd" clip-rule="evenodd" d="M2.48744 3.6847C2.67422 2.9007 3.30688 2.43275 3.87719 2.43275H25.1637C25.7341 2.43275 26.3668 2.90073 26.5535 3.68479L14.5205 12.6236L2.48744 3.6847ZM0 4.25497C0 4.25489 0 4.2548 0 4.25472V4.16228C0 1.98968 1.62844 0 3.87719 0H25.1637C27.4125 0 29.0409 1.98968 29.0409 4.16228V4.23553C29.0411 4.24841 29.0411 4.26129 29.0409 4.27416V21.8377C29.0409 24.0103 27.4125 26 25.1637 26H3.87719C1.62844 26 0 24.0103 0 21.8377V4.25497ZM26.6082 6.67472V21.8377C26.6082 22.9056 25.8419 23.5673 25.1637 23.5673H3.87719C3.19904 23.5673 2.43275 22.9056 2.43275 21.8377V6.67461L13.7952 15.1153C14.2258 15.4352 14.8152 15.4352 15.2459 15.1153L26.6082 6.67472Z" fill="white"/>
</svg>
