<svg width="28" height="28" viewBox="0 0 28 28" fill="none" xmlns="http://www.w3.org/2000/svg">
  <path d="M14 2.51951C17.7345 2.51951 18.1829 2.53582 19.6588 2.60105C21.0205 2.66628 21.7624 2.89458 22.2598 3.08212C22.9121 3.33489 23.3769 3.63657 23.8661 4.1258C24.3554 4.61503 24.657 5.07979 24.9098 5.73209C25.1055 6.22132 25.3256 6.96331 25.3909 8.33314C25.4561 9.80897 25.4724 10.2493 25.4724 13.9918C25.4724 17.7344 25.4561 18.1747 25.3909 19.6506C25.3256 21.0122 25.0973 21.7542 24.9098 22.2516C24.657 22.9039 24.3554 23.3687 23.8661 23.8579C23.3769 24.3471 22.9121 24.6488 22.2598 24.9016C21.7706 25.0973 21.0286 25.3174 19.6588 25.3826C18.1829 25.4479 17.7426 25.4642 14 25.4642C10.2575 25.4642 9.81715 25.4479 8.34132 25.3826C6.97963 25.3174 6.23764 25.0891 5.74026 24.9016C5.08795 24.6488 4.62319 24.3471 4.13396 23.8579C3.64473 23.3687 3.34304 22.9039 3.09028 22.2516C2.89459 21.7624 2.67444 21.0204 2.60921 19.6506C2.54398 18.1747 2.52766 17.7344 2.52766 13.9918C2.52766 10.2493 2.54398 9.80897 2.60921 8.33314C2.67444 6.97146 2.90274 6.22947 3.09028 5.73209C3.34304 5.07979 3.64473 4.61503 4.13396 4.1258C4.62319 3.63657 5.08795 3.33489 5.74026 3.08212C6.22948 2.88643 6.97148 2.66628 8.34132 2.60105C9.81715 2.53582 10.2575 2.51951 14 2.51951ZM14 0C10.2004 0 9.71929 0.0163078 8.22715 0.0815379C6.73501 0.146768 5.72395 0.383226 4.82704 0.733838C3.90566 1.0926 3.12289 1.57367 2.34828 2.34828C1.57367 3.12289 1.0926 3.90565 0.733835 4.82702C0.391377 5.71578 0.154914 6.735 0.0815304 8.22714C0.0163001 9.71928 0 10.2003 0 14C0 17.7996 0.0163001 18.2807 0.0815304 19.7729C0.146761 21.265 0.383223 22.2761 0.733835 23.173C1.0926 24.0943 1.57367 24.8771 2.34828 25.6517C3.12289 26.4263 3.90566 26.9074 4.82704 27.2662C5.7158 27.6086 6.73501 27.8451 8.22715 27.9185C9.71929 27.9837 10.2004 28 14 28C17.7997 28 18.2808 27.9837 19.7729 27.9185C21.2651 27.8532 22.2761 27.6168 23.173 27.2662C24.0944 26.9074 24.8772 26.4263 25.6518 25.6517C26.4264 24.8771 26.9075 24.0943 27.2662 23.173C27.6087 22.2842 27.8452 21.265 27.9186 19.7729C27.9838 18.2807 28.0001 17.7996 28.0001 14C28.0001 10.2003 27.9838 9.71928 27.9186 8.22714C27.8533 6.735 27.6168 5.72394 27.2662 4.82702C26.9075 3.90565 26.4264 3.12289 25.6518 2.34828C24.8772 1.57367 24.0944 1.0926 23.173 0.733838C22.2843 0.39138 21.2651 0.154922 19.7729 0.0815379C18.2808 0.0163078 17.7997 0 14 0Z" fill="white"/>
  <path d="M13.996 6.81641C10.0251 6.81641 6.8125 10.0371 6.8125 13.9999C6.8125 17.9626 10.0332 21.1833 13.996 21.1833C17.9587 21.1833 21.1795 17.9626 21.1795 13.9999C21.1795 10.0371 17.9587 6.81641 13.996 6.81641ZM13.996 18.672C11.4194 18.672 9.33202 16.5846 9.33202 14.008C9.33202 11.4314 11.4194 9.34407 13.996 9.34407C16.5726 9.34407 18.6599 11.4314 18.6599 14.008C18.6599 16.5846 16.5726 18.672 13.996 18.672Z" fill="white"/>
  <path d="M21.4687 8.2031C22.3964 8.2031 23.1484 7.45108 23.1484 6.52342C23.1484 5.59577 22.3964 4.84375 21.4687 4.84375C20.5411 4.84375 19.7891 5.59577 19.7891 6.52342C19.7891 7.45108 20.5411 8.2031 21.4687 8.2031Z" fill="white"/>
</svg>
