<svg width="14" height="15" viewBox="0 0 14 15" fill="none" xmlns="http://www.w3.org/2000/svg">
  <g clip-path="url(#clip0_1396_70)">
    <path fill-rule="evenodd" clip-rule="evenodd" d="M4.00409 0.523438C4.41897 0.523438 4.75531 0.859773 4.75531 1.27466V3.27793C4.75531 3.69283 4.41897 4.02916 4.00409 4.02916C3.5892 4.02916 3.25286 3.69283 3.25286 3.27793V1.27466C3.25286 0.859773 3.5892 0.523438 4.00409 0.523438ZM1.94006 5.94879C2.22182 5.66703 2.60397 5.50873 3.00245 5.50873H8.01062C8.4091 5.50873 8.79126 5.66703 9.07302 5.94879C9.24411 6.11988 9.36967 6.32798 9.44192 6.55427H9.51307C10.3765 6.55427 11.2044 6.89724 11.8149 7.50773C12.4254 8.11822 12.7684 8.94622 12.7684 9.80959C12.7684 10.673 12.4254 11.5009 11.8149 12.1114C11.2044 12.7219 10.3765 13.0649 9.51307 13.0649H9.28435C9.16158 13.3321 8.99156 13.5781 8.77965 13.79C8.31004 14.2596 7.67311 14.5234 7.00899 14.5234H4.00409C3.33996 14.5234 2.70303 14.2596 2.23343 13.79C1.76382 13.3204 1.5 12.6834 1.5 12.0194V7.01118C1.5 6.61271 1.6583 6.23055 1.94006 5.94879ZM9.51307 11.5624C9.97796 11.5624 10.4238 11.3778 10.7525 11.0491C11.0812 10.7203 11.2659 10.2745 11.2659 9.80959C11.2659 9.3447 11.0812 8.89885 10.7525 8.57012C10.4238 8.2414 9.97796 8.05673 9.51307 8.05673V11.5624ZM7.76021 1.27466C7.76021 0.859773 7.42388 0.523438 7.00899 0.523438C6.5941 0.523438 6.25776 0.859773 6.25776 1.27466V3.27793C6.25776 3.69283 6.5941 4.02916 7.00899 4.02916C7.42388 4.02916 7.76021 3.69283 7.76021 3.27793V1.27466Z" fill="white"/>
  </g>
  <defs>
    <clipPath id="clip0_1396_70">
      <rect width="14" height="14" fill="white" transform="translate(0 0.5)"/>
    </clipPath>
  </defs>
</svg>
