<svg width="12" height="14" viewBox="0 0 12 14" fill="none" xmlns="http://www.w3.org/2000/svg">
  <path fill-rule="evenodd" clip-rule="evenodd" d="M2.50409 0.0234375C2.91897 0.0234375 3.25531 0.359773 3.25531 0.774663V2.77793C3.25531 3.19283 2.91897 3.52916 2.50409 3.52916C2.0892 3.52916 1.75286 3.19283 1.75286 2.77793V0.774663C1.75286 0.359773 2.0892 0.0234375 2.50409 0.0234375ZM0.440058 5.44879C0.721818 5.16703 1.10397 5.00873 1.50245 5.00873H6.51062C6.9091 5.00873 7.29126 5.16703 7.57302 5.44879C7.74411 5.61988 7.86967 5.82798 7.94192 6.05427H8.01307C8.87648 6.05427 9.70444 6.39724 10.3149 7.00773C10.9254 7.61822 11.2684 8.44622 11.2684 9.30959C11.2684 10.173 10.9254 11.0009 10.3149 11.6114C9.70444 12.2219 8.87648 12.5649 8.01307 12.5649H7.78435C7.66158 12.8321 7.49156 13.0781 7.27965 13.29C6.81004 13.7596 6.17311 14.0234 5.50899 14.0234H2.50409C1.83996 14.0234 1.20303 13.7596 0.733427 13.29C0.26382 12.8204 0 12.1834 0 11.5194V6.51118C0 6.11271 0.158298 5.73055 0.440058 5.44879ZM8.01307 11.0624C8.47796 11.0624 8.92376 10.8778 9.2525 10.5491C9.58123 10.2203 9.76593 9.77448 9.76593 9.30959C9.76593 8.8447 9.58123 8.39885 9.2525 8.07012C8.92376 7.7414 8.47796 7.55673 8.01307 7.55673V11.0624ZM6.26021 0.774663C6.26021 0.359773 5.92388 0.0234375 5.50899 0.0234375C5.0941 0.0234375 4.75776 0.359773 4.75776 0.774663V2.77793C4.75776 3.19283 5.0941 3.52916 5.50899 3.52916C5.92388 3.52916 6.26021 3.19283 6.26021 2.77793V0.774663Z" fill="black"/>
</svg>
