<svg width="26" height="26" viewBox="0 0 26 26" fill="none" xmlns="http://www.w3.org/2000/svg">
  <path d="M25.1271 0.00855846C24.6308 0.59052 24.1344 1.16392 23.6294 1.73733C20.9592 4.77551 18.2976 7.81369 15.6274 10.8519C15.5761 10.9032 15.5333 10.9631 15.4819 11.0316C18.9737 16.0125 22.4655 20.9849 25.9744 25.9914C25.8717 25.9914 25.8032 26 25.7348 26C23.3128 26 20.8822 26 18.4602 26C18.2976 26 18.2035 25.9487 18.1093 25.8117C15.8499 22.5767 13.582 19.3502 11.3141 16.1152C11.2713 16.0553 11.2285 16.004 11.1686 15.9269C11.1001 15.9954 11.0487 16.0553 10.9888 16.1152C8.13893 19.3588 5.28902 22.6024 2.44767 25.846C2.35353 25.9572 2.25939 26 2.1139 25.9914C1.43779 25.9914 0.761688 25.9914 0.017117 25.9914C3.4062 22.1317 6.76961 18.2976 10.1501 14.4635C6.76105 9.6366 3.38052 4.8183 0 0C2.5846 0 5.16921 0 7.75381 0C7.77948 0.0427913 7.80516 0.0855823 7.83083 0.128374C9.99608 3.21791 12.1613 6.30744 14.3351 9.39697C14.3694 9.44832 14.4122 9.49111 14.4549 9.55102C14.4977 9.49967 14.5405 9.46544 14.5662 9.4312C16.9625 6.70968 19.3503 3.98815 21.7466 1.26662C22.1146 0.847268 22.4655 0.427913 22.825 0.00855846C23.5866 0.00855846 24.3569 0.00855846 25.1186 0.00855846H25.1271ZM3.14089 1.70309C3.18368 1.77156 3.20936 1.82291 3.24359 1.8657C8.56685 9.32851 13.8987 16.7913 19.2219 24.2541C19.3075 24.3654 19.3931 24.4082 19.5215 24.4082C20.557 24.4082 21.584 24.4082 22.6196 24.4082C22.6795 24.4082 22.7479 24.4082 22.8335 24.3996C22.7907 24.3311 22.7565 24.2883 22.7308 24.237C17.399 16.7742 12.0757 9.31139 6.75249 1.84858C6.67547 1.74589 6.607 1.69454 6.47007 1.69454C5.4174 1.69454 4.36473 1.69454 3.31206 1.69454C3.26071 1.69454 3.21792 1.69454 3.14089 1.70309Z" fill="white"/>
</svg>
