<svg width="177" height="113" viewBox="0 0 177 113" fill="none" xmlns="http://www.w3.org/2000/svg">
  <g clip-path="url(#clip0_1678_487)">
    <path d="M176.519 88.1236C175.185 97.9045 171.619 106.063 168.545 106.337L167.806 106.241L160.414 105.276L167.765 69.2461L173.357 70.923C176.43 70.6424 177.847 78.3494 176.513 88.1304L176.519 88.1236Z" fill="black"/>
    <path d="M168.544 106.338C168.284 106.359 168.044 106.324 167.805 106.242L168.544 106.338Z" fill="black"/>
    <path d="M168.949 86.2674C167.341 98.0333 163.015 107.588 159.292 107.616H159.278L149.805 108.554L144.117 101.086L157.478 63.3242L165.117 65.0012C168.847 64.9738 170.558 74.4947 168.949 86.2606V86.2674Z" fill="black"/>
    <path d="M146.524 112.577C146.141 112.577 145.771 112.502 145.422 112.352L146.524 112.577Z" fill="black"/>
    <path d="M158.967 85.0585C156.893 100.226 151.322 112.54 146.524 112.574L145.422 112.348L130.062 109.206L138.221 54.3672L154.491 57.7005C158.967 58.4397 160.973 70.4041 158.967 85.0653V85.0585Z" fill="black"/>
    <path d="M125.778 81.8826C123.704 97.0503 125.921 109.316 130.72 109.289C135.524 109.261 141.096 96.9408 143.163 81.7731C145.237 66.6054 143.019 54.3399 138.221 54.3672C133.416 54.3946 127.845 66.7149 125.778 81.8826Z" fill="black"/>
    <path d="M0.503419 88.1236C1.83812 97.9045 5.40417 106.063 8.47741 106.337L9.21663 106.241L16.6088 105.276L9.2577 69.2461L3.66564 70.923C0.5924 70.6424 -0.824438 78.3494 0.510264 88.1304L0.503419 88.1236Z" fill="black"/>
    <path d="M8.48438 106.338C8.74447 106.359 8.98403 106.324 9.22359 106.242L8.48438 106.338Z" fill="black"/>
    <path d="M8.06541 86.2674C9.6739 98.0333 13.9997 107.588 17.7232 107.616H17.7369L27.2098 108.554L32.8977 101.086L19.537 63.3242L11.8984 65.0012C8.16808 64.9738 6.45693 74.4947 8.06541 86.2606V86.2674Z" fill="black"/>
    <path d="M30.5 112.577C30.8833 112.577 31.2529 112.502 31.602 112.352L30.5 112.577Z" fill="black"/>
    <path d="M18.0593 85.0585C20.1332 100.226 25.7047 112.54 30.5028 112.574L31.6048 112.348L46.9641 109.206L38.8053 54.3672L22.5357 57.7005C18.0593 58.4397 16.0538 70.4041 18.0593 85.0653V85.0585Z" fill="black"/>
    <path d="M51.249 81.8826C53.323 97.0503 51.1053 109.316 46.3072 109.289C41.5023 109.261 35.9308 96.9408 33.8637 81.7731C31.7898 66.6054 34.0074 54.3399 38.8055 54.3672C43.6104 54.3946 49.182 66.7149 51.249 81.8826Z" fill="black"/>
    <path d="M173.268 87.5505C172.146 95.7914 169.141 102.663 166.547 102.896L165.924 102.814L159.695 101.999L165.89 71.6367L170.606 73.0467C173.2 72.814 174.391 79.3095 173.268 87.5505Z" fill="url(#paint0_linear_1678_487)"/>
    <path d="M166.545 102.899C166.326 102.919 166.12 102.892 165.922 102.816L166.545 102.899Z" fill="url(#paint1_linear_1678_487)"/>
    <path d="M166.885 85.9845C165.53 95.8955 161.888 103.952 158.747 103.972H158.733L150.752 104.759L145.961 98.4691L157.22 66.6484L163.654 68.0653C166.796 68.0447 168.24 76.0666 166.885 85.9845Z" fill="url(#paint2_linear_1678_487)"/>
    <path d="M147.987 108.153C147.665 108.153 147.357 108.091 147.062 107.961L147.987 108.153Z" fill="url(#paint3_linear_1678_487)"/>
    <path d="M158.494 84.9703C156.748 97.7493 152.053 108.133 148.008 108.153L147.084 107.961L134.141 105.313L141.013 59.0977L154.722 61.904C158.494 62.5268 160.184 72.609 158.494 84.9635V84.9703Z" fill="url(#paint4_linear_1678_487)"/>
    <path d="M134.665 104.359C134.22 104.359 133.803 104.126 133.392 103.654C131.407 101.381 129.983 93.7702 131.53 82.4287C133.324 69.3144 137.964 60.1494 141.01 60.1289C141.462 60.1289 141.879 60.3616 142.29 60.8339C144.275 63.1063 145.699 70.7175 144.152 82.0591C142.359 95.1734 137.718 104.338 134.672 104.359H134.665Z" fill="#D32028"/>
    <path d="M141.022 61.1628C141.193 61.1628 141.426 61.4092 141.522 61.5118C142.473 62.6001 143.24 65.249 143.568 68.6029C143.952 72.4564 143.801 77.056 143.137 81.9225C142.316 87.9116 140.824 93.5242 138.921 97.7268C136.847 102.313 135.15 103.326 134.67 103.333C134.499 103.333 134.267 103.086 134.171 102.983C133.219 101.895 132.453 99.2463 132.124 95.8924C131.741 92.0389 131.892 87.4393 132.555 82.5728C133.377 76.5837 134.869 70.9711 136.772 66.7685C138.846 62.1826 140.543 61.1696 141.022 61.1628ZM141.022 59.1094C141.022 59.1094 141.015 59.1094 141.009 59.1094C136.963 59.1368 132.268 69.5132 130.523 82.2921C128.777 95.0574 130.639 105.386 134.67 105.386C134.67 105.386 134.677 105.386 134.684 105.386C138.729 105.359 143.425 94.9821 145.17 82.2031C146.915 69.4379 145.054 59.1094 141.022 59.1094Z" fill="#A71E28"/>
    <path d="M3.89908 87.5505C5.0216 95.7914 8.02639 102.663 10.6205 102.896L11.2434 102.814L17.472 101.999L11.2776 71.6367L6.56164 73.0467C3.96753 72.814 2.77656 79.3095 3.89908 87.5505Z" fill="url(#paint5_linear_1678_487)"/>
    <path d="M10.625 102.899C10.844 102.919 11.0494 102.892 11.2479 102.816L10.625 102.899Z" fill="url(#paint6_linear_1678_487)"/>
    <path d="M10.2824 85.9845C11.6376 95.8955 15.2789 103.952 18.4206 103.972H18.4343L26.4151 104.759L31.2064 98.4691L19.947 66.6484L13.513 68.0653C10.3713 68.0447 8.92713 76.0666 10.2824 85.9845Z" fill="url(#paint7_linear_1678_487)"/>
    <path d="M29.1719 108.153C29.4936 108.153 29.8016 108.091 30.0959 107.961L29.1719 108.153Z" fill="url(#paint8_linear_1678_487)"/>
    <path d="M18.6794 84.9703C20.4247 97.7493 25.1202 108.133 29.1653 108.153L30.0894 107.961L43.0325 105.313L36.1605 59.0977L22.4508 61.904C18.6794 62.5268 16.9887 72.609 18.6794 84.9635V84.9703Z" fill="url(#paint9_linear_1678_487)"/>
    <path d="M42.5023 104.359C39.4564 104.338 34.8158 95.1802 33.0225 82.0591C31.4756 70.7175 32.8993 63.1063 34.8842 60.8339C35.2949 60.3616 35.7124 60.1289 36.1573 60.1289C39.21 60.1494 43.8507 69.3076 45.644 82.4287C47.1909 93.7702 45.7672 101.381 43.7823 103.654C43.3716 104.126 42.9541 104.359 42.5091 104.359H42.5023Z" fill="#D32028"/>
    <path d="M36.1558 61.1628C36.6349 61.1628 38.3324 62.1758 40.4063 66.7685C42.3091 70.9711 43.8081 76.5837 44.6226 82.5728C45.2865 87.4324 45.4371 92.0389 45.0538 95.8924C44.7184 99.2463 43.9518 101.895 43.0073 102.983C42.9183 103.086 42.6856 103.333 42.5076 103.333C42.0285 103.333 40.331 102.32 38.2571 97.7268C36.3543 93.5242 34.8553 87.9116 34.0408 81.9225C33.3769 77.0628 33.2263 72.4564 33.6096 68.6029C33.945 65.249 34.7116 62.6001 35.6561 61.5118C35.7451 61.4092 35.9778 61.1628 36.1558 61.1628ZM36.1558 59.1094C32.1175 59.1094 30.2626 69.4379 32.0079 82.2031C33.7533 94.9821 38.4487 105.365 42.4939 105.386C42.4939 105.386 42.5008 105.386 42.5076 105.386C46.5459 105.386 48.4008 95.0574 46.6554 82.2921C44.9101 69.5132 40.2147 59.1299 36.1695 59.1094C36.1695 59.1094 36.1626 59.1094 36.1558 59.1094Z" fill="#A71E28"/>
    <path d="M139.981 82.0217C139.728 84.0408 139.174 85.6836 138.681 86.8471C124.759 83.8355 107.832 81.4741 88.5507 81.4604C69.2694 81.4673 52.3358 83.8355 38.4207 86.8471C37.9621 85.7931 37.3803 84.1435 37.1202 82.0217C36.8464 79.7835 37.0381 77.9286 37.2434 76.7376C54.2728 72.9868 71.4118 71.1045 88.5507 71.0977C105.69 71.1045 122.829 72.9868 139.858 76.7376C140.084 78.0313 140.255 79.8588 139.981 82.0217Z" fill="black"/>
    <path d="M37.8447 5.67412C38.3855 5.50985 38.8441 5.46193 39.2753 5.50985C39.3506 5.52354 39.419 5.59883 39.419 5.68781C39.419 6.21484 39.419 6.47494 39.419 7.00197C39.4053 7.13887 39.2547 7.26892 39.0905 7.24838C37.3245 7.11149 36.4074 8.33668 36.4074 9.97939C36.4074 10.7939 36.6401 12.0122 37.6052 11.8069C37.7352 11.7795 37.8242 11.7453 37.8242 11.54C37.8242 11.1635 37.8242 10.9719 37.8242 10.5954C37.8242 10.4311 37.7352 10.438 37.6394 10.4585C37.4341 10.5064 37.3314 10.527 37.1329 10.5749C37.0234 10.6022 36.9413 10.5338 36.9413 10.4243C36.9413 9.9041 36.9413 9.644 36.9413 9.11696C36.9413 9.00745 37.0302 8.89794 37.1329 8.8774C37.9748 8.68575 38.3923 8.58993 39.2342 8.40512C39.3437 8.38459 39.4327 8.45304 39.4327 8.56255C39.4327 10.0821 39.4327 10.835 39.4327 12.3545C39.4327 12.6625 39.3574 12.7857 39.1863 12.9226C38.7003 13.2717 38.2349 13.4291 37.7215 13.5454C35.6134 14.0177 34.7578 12.5735 34.7578 10.3695C34.7578 8.22032 35.7503 6.31067 37.8516 5.67412H37.8447Z" fill="black"/>
    <path d="M40.2734 5.40221C40.2734 5.2927 40.3693 5.18319 40.4719 5.16265C41.7245 4.89571 42.3474 4.76566 43.5999 4.51926C43.7094 4.49872 43.7847 4.56717 43.7847 4.67668C43.7847 5.20372 43.7847 5.46381 43.7847 5.99085C43.7847 6.10036 43.7094 6.18934 43.5999 6.21672C42.9908 6.33993 42.6896 6.40153 42.0804 6.52473C42.0051 6.53842 41.9641 6.60687 41.9641 6.689C41.9641 7.11337 41.9641 7.32555 41.9641 7.74992C41.9641 7.80468 41.9983 7.81837 42.0599 7.80468C42.6348 7.68832 42.9292 7.62672 43.5041 7.51036C43.6136 7.48982 43.7026 7.54458 43.7026 7.66778C43.7026 8.18798 43.7026 8.44807 43.7026 8.97511C43.7026 9.08462 43.6136 9.18729 43.5041 9.21467C42.936 9.33103 42.6485 9.38579 42.0804 9.50214C42.0188 9.51583 41.9641 9.58428 41.9641 9.64588C41.9641 10.0566 41.9641 10.2619 41.9641 10.6794C41.9641 10.8026 42.0188 10.8095 42.0804 10.7958C42.6827 10.6726 42.9839 10.611 43.5931 10.4878C43.6889 10.4672 43.7916 10.5357 43.7916 10.6452C43.7916 11.1654 43.7916 11.4255 43.7916 11.9525C43.7916 12.062 43.6957 12.1715 43.5931 12.1852C42.3474 12.4316 41.7245 12.5617 40.4788 12.8286C40.383 12.8492 40.2803 12.7807 40.2803 12.6712C40.2803 9.76224 40.2803 8.30433 40.2803 5.39537L40.2734 5.40221Z" fill="black"/>
    <path d="M45.9049 5.86861C45.9049 5.80017 45.8707 5.77279 45.816 5.78648C45.419 5.86177 45.2205 5.89599 44.8235 5.97813C44.714 5.99866 44.625 5.93021 44.625 5.8207C44.625 5.30051 44.625 5.04041 44.625 4.51338C44.625 4.40386 44.714 4.30119 44.8235 4.28066C46.3704 3.9795 47.1507 3.83576 48.7044 3.56197C48.8139 3.54144 48.9029 3.61673 48.9029 3.72624C48.9029 4.24644 48.9029 4.50653 48.9029 5.03357C48.9029 5.14308 48.8139 5.24575 48.7044 5.26629C48.3006 5.33473 48.0952 5.3758 47.6914 5.44425C47.6503 5.45109 47.5956 5.48531 47.5956 5.57429C47.5956 7.83987 47.5956 8.97607 47.5956 11.2416C47.5956 11.3306 47.5066 11.4538 47.3971 11.4744C46.8769 11.5702 46.6168 11.6181 46.1034 11.7139C45.9939 11.7345 45.9049 11.6386 45.9049 11.5565C45.9049 9.28408 45.9049 8.14787 45.9049 5.8823V5.86861Z" fill="black"/>
    <path d="M52.3272 3.14507C52.3272 3.03556 52.4025 2.93289 52.512 2.9192C53.7645 2.7207 54.3942 2.62488 55.6536 2.44692C55.7495 2.43323 55.8521 2.50852 55.8521 2.61803C55.8521 3.14507 55.8521 3.40517 55.8521 3.9322C55.8521 4.04172 55.7563 4.1307 55.6536 4.14439C55.0719 4.22652 54.7775 4.27443 54.1957 4.35657C54.0862 4.37026 54.0178 4.42502 54.0178 4.58244C54.0178 4.96574 54.0178 5.16424 54.0178 5.54753C54.0178 5.63651 54.0383 5.66389 54.1478 5.6502C54.7228 5.56122 55.0103 5.52016 55.5784 5.43802C55.6879 5.42433 55.7632 5.48593 55.7632 5.60914C55.7632 6.12933 55.7632 6.38942 55.7632 6.91646C55.7632 7.02597 55.6879 7.1218 55.5784 7.14233C54.9966 7.22447 54.7022 7.27238 54.1205 7.35452C54.0452 7.3682 54.0109 7.42296 54.0109 7.47772C54.0109 8.55233 54.0109 9.08621 54.0109 10.1608C54.0109 10.2703 53.9151 10.373 53.8056 10.3867C53.2854 10.4688 53.0253 10.5099 52.5051 10.592C52.3956 10.6126 52.3203 10.5373 52.3203 10.4209C52.3203 7.51194 52.3203 6.05404 52.3203 3.14507H52.3272Z" fill="black"/>
    <path d="M56.7188 2.49528C56.7188 2.38577 56.794 2.28994 56.9036 2.26941C57.4306 2.19412 57.6907 2.1599 58.2177 2.09145C58.3409 2.07776 58.4162 2.15305 58.4162 2.26256C58.4162 5.17153 58.4162 6.62944 58.4162 9.5384C58.4162 9.64792 58.3409 9.74374 58.2177 9.76428C57.6907 9.83272 57.4306 9.86695 56.9036 9.94224C56.794 9.95593 56.7188 9.88064 56.7188 9.77112C56.7188 6.86215 56.7188 5.40425 56.7188 2.49528Z" fill="black"/>
    <path d="M60.5446 3.59405C60.5446 3.5256 60.5104 3.49822 60.4556 3.50507C60.0586 3.55298 59.8533 3.58036 59.4563 3.62827C59.3468 3.64196 59.2578 3.56667 59.2578 3.45715C59.2578 2.93696 59.2578 2.67687 59.2578 2.14983C59.2578 2.04032 59.3468 1.94449 59.4563 1.92396C61.0169 1.72546 61.7972 1.62964 63.3646 1.45852C63.4741 1.44483 63.5631 1.52697 63.5631 1.63648C63.5631 2.15668 63.5631 2.41677 63.5631 2.94381C63.5631 3.05332 63.4741 3.14915 63.3646 3.16284C62.9539 3.21075 62.7486 3.23128 62.3447 3.27919C62.3037 3.27919 62.2489 3.31342 62.2489 3.4024C62.2489 5.66797 62.2489 6.80418 62.2489 9.06975C62.2489 9.15873 62.1599 9.27509 62.0504 9.28878C61.5302 9.35038 61.2633 9.37776 60.7431 9.4462C60.6336 9.45989 60.5446 9.36407 60.5446 9.27509C60.5446 7.00267 60.5446 5.86646 60.5446 3.60089V3.59405Z" fill="black"/>
    <path d="M70.7904 0.770372C70.893 0.763527 70.9683 0.79775 70.9888 0.900419C71.4337 3.78201 71.6528 5.22622 72.0977 8.10781C72.1182 8.23786 72.0087 8.35422 71.8855 8.36106C71.3448 8.40213 71.0778 8.42266 70.5439 8.46373C70.4687 8.46373 70.366 8.40898 70.3591 8.31315C70.3044 7.90247 70.2702 7.70398 70.2154 7.2933C69.6541 7.34121 69.3735 7.36175 68.8191 7.40966C68.7643 7.82718 68.737 8.03252 68.6891 8.45004C68.6754 8.55271 68.5795 8.62116 68.5043 8.628C67.9704 8.67592 67.6966 8.69645 67.1627 8.75121C67.0395 8.7649 66.93 8.66223 66.9574 8.53218C67.4023 5.5753 67.6213 4.09686 68.0662 1.13998C68.0867 1.03731 68.1689 0.9894 68.2647 0.982555C69.2777 0.893575 69.7842 0.852507 70.7972 0.770372H70.7904ZM69.0518 5.69166C69.4283 5.65744 69.6131 5.64375 69.9895 5.61637C69.8253 4.41171 69.7431 3.80939 69.5789 2.60473C69.5789 2.59104 69.5583 2.5842 69.5446 2.57735C69.5241 2.57735 69.5104 2.57735 69.4899 2.57735C69.4762 2.59104 69.4693 2.59789 69.4693 2.61158C69.3051 3.84361 69.2161 4.45963 69.0518 5.69166Z" fill="black"/>
    <path d="M74.6332 5.09389C74.5989 5.00491 74.5305 5.03228 74.5237 5.12126C74.5237 6.27116 74.5237 6.84611 74.5237 7.99601C74.5237 8.10552 74.421 8.20135 74.3115 8.20819C73.805 8.24241 73.5517 8.2561 73.0452 8.29033C72.922 8.29717 72.8125 8.22188 72.8125 8.10552C72.8125 5.19656 72.8125 3.73865 72.8125 0.829684C72.8125 0.72017 72.922 0.624345 73.0452 0.6175C73.5449 0.583277 73.7981 0.569588 74.2978 0.535365C74.3868 0.535365 74.4621 0.569588 74.4963 0.651723C74.9822 1.85638 75.2218 2.4587 75.7078 3.66336C75.7283 3.75234 75.8173 3.73181 75.8378 3.63598C75.8378 2.43817 75.8378 1.84269 75.8378 0.644879C75.8378 0.535365 75.9268 0.43954 76.05 0.43954C76.577 0.412162 76.8371 0.398472 77.3642 0.371094C77.4737 0.371094 77.5764 0.446385 77.5764 0.555899C77.5764 3.46486 77.5764 4.92277 77.5764 7.83174C77.5764 7.94125 77.4805 8.03708 77.3642 8.03708C76.8714 8.06445 76.625 8.0713 76.1321 8.09868C76.0569 8.09868 75.9679 8.05076 75.9337 7.97547C75.4135 6.81873 75.1534 6.24378 74.6332 5.09389Z" fill="black"/>
    <path d="M78.5949 7.97342C78.4854 7.97342 78.4375 7.87075 78.4375 7.78177C78.4375 4.87281 78.4375 3.4149 78.4375 0.505934C78.4375 0.416954 78.4786 0.30744 78.5949 0.300595C79.3752 0.266372 79.7654 0.252683 80.5456 0.225304C82.2979 0.163702 82.907 1.18355 82.907 2.60039C82.907 3.66815 82.907 4.19519 82.907 5.26295C82.907 6.63187 82.4553 7.82968 80.5456 7.89813C79.7654 7.92551 79.3752 7.9392 78.5949 7.97342ZM81.1959 2.66884C81.1959 2.16233 80.9632 1.90908 80.6209 1.92277C80.4772 1.92277 80.4019 1.92962 80.2582 1.93646C80.1897 1.93646 80.1487 1.99806 80.1487 2.05966C80.1487 3.66815 80.1487 4.47582 80.1487 6.0843C80.1487 6.13906 80.1829 6.21435 80.2445 6.21435C80.3882 6.21435 80.4635 6.20751 80.6073 6.20066C81.0179 6.18697 81.189 5.90634 81.189 5.33824V2.67568L81.1959 2.66884Z" fill="black"/>
    <path d="M89.3202 7.60535C88.5742 7.95443 87.2463 7.85861 86.5618 7.60535C86.4181 7.56429 86.3633 7.44108 86.377 7.32472C86.377 6.85929 86.377 6.62657 86.377 6.16114C86.377 6.01056 86.5002 5.86682 86.685 5.94211C86.9725 6.05162 87.7049 6.20221 88.1293 6.1406C88.5194 6.08585 88.6905 5.72308 88.451 5.41507C87.9513 4.70323 87.2326 4.08037 86.774 3.38222C86.1306 2.41713 86.3291 0.877087 87.349 0.322672C88.0882 -0.0811607 89.3476 -0.040093 90.0389 0.178935C90.1963 0.226847 90.2579 0.336361 90.2579 0.466409C90.2579 0.931844 90.2579 1.16456 90.2579 1.63C90.2579 1.78058 90.1347 1.91747 89.9362 1.86956C89.6351 1.76004 88.9985 1.63 88.6152 1.71213C88.2114 1.80111 88.1087 2.1365 88.3277 2.4582C88.8479 3.18373 89.5735 3.84081 90.0184 4.58687C90.5865 5.53828 90.4359 7.09201 89.3271 7.60535H89.3202Z" fill="black"/>
    <path d="M92.4186 1.91966C92.4186 1.85122 92.3844 1.82384 92.3297 1.817C91.9258 1.817 91.7273 1.81015 91.3235 1.80331C91.214 1.80331 91.125 1.71433 91.125 1.60481C91.125 1.08462 91.125 0.824525 91.125 0.297488C91.125 0.187974 91.214 0.0989943 91.3235 0.105839C92.8978 0.126373 93.678 0.140062 95.2523 0.187974C95.3618 0.187974 95.4508 0.283799 95.4508 0.393313C95.4508 0.913505 95.4508 1.1736 95.4508 1.70064C95.4508 1.81015 95.3618 1.89229 95.2523 1.89229C94.8416 1.8786 94.6363 1.87175 94.2256 1.86491C94.1845 1.86491 94.1298 1.88544 94.1298 1.97442C94.1298 4.23999 94.1298 5.3762 94.1298 7.64177C94.1298 7.73075 94.0408 7.84027 93.9313 7.83342C93.4043 7.81973 93.1442 7.81289 92.6171 7.80604C92.5076 7.80604 92.4186 7.68969 92.4186 7.60755C92.4186 5.33513 92.4186 4.19893 92.4186 1.93335V1.91966Z" fill="black"/>
    <path d="M99.192 0.326294C99.2946 0.326294 99.3699 0.381051 99.3905 0.476875C99.8354 3.41322 100.061 4.88482 100.506 7.82116C100.527 7.95121 100.417 8.06072 100.294 8.05388C99.7532 8.0265 99.4863 8.01281 98.9456 7.99228C98.8703 7.99228 98.7676 7.91698 98.7607 7.82116C98.706 7.40364 98.6718 7.1983 98.617 6.78762C98.0558 6.76024 97.7751 6.7534 97.2139 6.73286C97.1591 7.14354 97.1317 7.34888 97.0838 7.75956C97.0701 7.85538 96.9743 7.91699 96.899 7.91699C96.3583 7.89645 96.0913 7.88961 95.5506 7.86907C95.4274 7.86907 95.3179 7.75271 95.3384 7.62267C95.7833 4.72054 96.0092 3.26948 96.4541 0.367361C96.4746 0.271536 96.5568 0.230469 96.6526 0.230469C97.6656 0.264692 98.1721 0.285226 99.192 0.333138V0.326294ZM97.4466 5.0354C97.823 5.04909 98.0078 5.05593 98.3843 5.07646C98.22 3.85128 98.1379 3.23526 97.9736 2.01007C97.9736 1.99638 97.9531 1.98954 97.9394 1.97585C97.9189 1.97585 97.9052 1.97585 97.8846 1.97585C97.8709 1.98954 97.8641 1.99638 97.8641 2.01007C97.6998 3.22157 97.6108 3.83074 97.4466 5.04224V5.0354Z" fill="black"/>
    <path d="M103.416 8.04707C103.416 8.15658 103.32 8.23872 103.204 8.23187C102.691 8.19765 102.43 8.18396 101.917 8.15658C101.808 8.15658 101.705 8.05391 101.705 7.9444C101.705 6.89033 101.705 6.35645 101.705 5.30237C101.705 5.21339 101.705 5.08335 101.671 5.02859C101.062 3.27637 100.76 2.40025 100.151 0.648029C100.11 0.524826 100.192 0.387933 100.336 0.394778C100.911 0.422156 101.205 0.44269 101.78 0.470069C101.869 0.470069 101.944 0.54536 101.965 0.63434C102.177 1.32565 102.28 1.67472 102.492 2.36603C102.533 2.47554 102.588 2.43448 102.615 2.37287C102.827 1.70895 102.93 1.37356 103.142 0.709631C103.163 0.620651 103.238 0.559049 103.327 0.565894C103.902 0.600117 104.19 0.620651 104.771 0.661718C104.915 0.668563 105.004 0.819145 104.956 0.935503C104.347 2.61244 104.046 3.44748 103.437 5.13126C103.402 5.18602 103.402 5.31606 103.402 5.40504C103.402 6.45912 103.402 6.993 103.402 8.04707H103.416Z" fill="black"/>
    <path d="M108.352 1.13648C108.352 1.02697 108.427 0.944835 108.536 0.958524C109.063 1.00644 109.33 1.02697 109.857 1.07488C109.981 1.08857 110.056 1.17755 110.056 1.29391C110.056 2.36852 110.056 2.9024 110.056 3.977C110.056 4.04545 110.09 4.07967 110.145 4.08652C110.569 4.12759 110.788 4.14812 111.213 4.18919C111.267 4.18919 111.315 4.16865 111.315 4.10021C111.315 3.0256 111.315 2.49172 111.315 1.41711C111.315 1.3076 111.404 1.22546 111.5 1.23915C112.027 1.29391 112.294 1.32129 112.821 1.37605C112.931 1.38974 113.026 1.48556 113.026 1.59507C113.026 4.50404 113.026 5.96195 113.026 8.87091C113.026 8.98043 112.931 9.05572 112.821 9.04887C112.294 8.99412 112.027 8.96674 111.5 8.91198C111.404 8.90514 111.315 8.80247 111.315 8.69295C111.315 7.63203 111.315 7.09815 111.315 6.03724C111.315 5.94141 111.274 5.8935 111.158 5.87981C110.781 5.84559 110.59 5.82505 110.213 5.79083C110.117 5.78399 110.063 5.81821 110.063 5.96195C110.063 7.00233 110.063 7.52937 110.063 8.56975C110.063 8.67926 109.987 8.7614 109.864 8.74771C109.337 8.6998 109.07 8.67242 108.543 8.63135C108.434 8.62451 108.358 8.52868 108.358 8.41917C108.358 5.5102 108.358 4.0523 108.358 1.14333L108.352 1.13648Z" fill="black"/>
    <path d="M113.875 1.67449C113.875 1.56497 113.971 1.48968 114.073 1.49653C115.34 1.64026 115.969 1.70871 117.236 1.87298C117.345 1.88667 117.421 1.98249 117.421 2.09201C117.421 2.61904 117.421 2.87914 117.421 3.40618C117.421 3.51569 117.345 3.58414 117.236 3.57045C116.62 3.49516 116.312 3.45409 115.703 3.38564C115.627 3.3788 115.579 3.42671 115.579 3.51569C115.579 3.94006 115.579 4.15224 115.579 4.57661C115.579 4.63136 115.614 4.65874 115.675 4.66559C116.257 4.73403 116.551 4.76826 117.133 4.84355C117.243 4.85724 117.332 4.94622 117.332 5.06258V6.3699C117.332 6.47941 117.243 6.5547 117.133 6.54101C116.558 6.47257 116.271 6.4315 115.696 6.36305C115.627 6.35621 115.572 6.40412 115.572 6.47257C115.572 6.88325 115.572 7.08858 115.572 7.50611C115.572 7.62931 115.627 7.65669 115.696 7.66353C116.305 7.73882 116.613 7.77305 117.222 7.84834C117.318 7.86203 117.421 7.95785 117.421 8.06737C117.421 8.58756 117.421 8.84765 117.421 9.37469C117.421 9.4842 117.325 9.55949 117.222 9.5458C115.963 9.38838 115.333 9.31309 114.073 9.1762C113.978 9.16251 113.875 9.06668 113.875 8.95717C113.875 6.0482 113.875 4.5903 113.875 1.68133V1.67449Z" fill="black"/>
    <path d="M121.981 2.51897C122.077 2.53266 122.159 2.58742 122.179 2.69009C122.624 5.6675 122.843 7.15963 123.281 10.1439C123.302 10.2808 123.192 10.3698 123.076 10.3561C122.542 10.2739 122.275 10.2329 121.741 10.1576C121.666 10.1439 121.563 10.0686 121.556 9.96592C121.502 9.5484 121.474 9.33622 121.413 8.9187C120.858 8.83656 120.578 8.80234 120.023 8.7202C119.968 9.12404 119.941 9.32937 119.893 9.73321C119.879 9.82903 119.784 9.88379 119.708 9.8701C119.174 9.79481 118.908 9.76059 118.374 9.69214C118.25 9.67845 118.141 9.55525 118.168 9.4252C118.613 6.56415 118.832 5.14046 119.277 2.27941C119.298 2.18358 119.373 2.14936 119.476 2.16305C120.482 2.29994 120.988 2.36839 121.994 2.51897H121.981ZM120.256 7.05011C120.626 7.10487 120.817 7.1254 121.187 7.18016C121.023 5.94128 120.94 5.31842 120.783 4.0727C120.783 4.05901 120.762 4.04532 120.749 4.03163C120.728 4.03163 120.715 4.03163 120.694 4.02479C120.68 4.03163 120.673 4.04532 120.673 4.05217C120.509 5.24998 120.427 5.84546 120.256 7.04327V7.05011Z" fill="black"/>
    <path d="M124.047 3.03093C124.047 2.92142 124.136 2.84613 124.245 2.86666C124.772 2.9488 125.033 2.98986 125.56 3.07884C125.655 3.09253 125.744 3.1952 125.744 3.30472C125.744 5.53607 125.744 6.65174 125.744 8.88309C125.744 9.03367 125.813 9.08843 125.929 9.10896C126.538 9.21163 126.846 9.25954 127.456 9.36221C127.551 9.3759 127.654 9.47173 127.654 9.57439C127.654 10.1083 127.654 10.3684 127.654 10.9023C127.654 11.0118 127.558 11.0802 127.456 11.0665C126.169 10.8475 125.532 10.7448 124.245 10.5395C124.136 10.5258 124.047 10.4231 124.047 10.3136C124.047 7.40465 124.047 5.94674 124.047 3.03778V3.03093Z" fill="black"/>
    <path d="M128.491 5.37017C128.491 5.30172 128.457 5.2675 128.402 5.25381C128.005 5.18536 127.806 5.15114 127.409 5.08269C127.3 5.06216 127.211 4.95949 127.211 4.84997C127.211 4.32978 127.211 4.06969 127.211 3.54265C127.211 3.43314 127.3 3.35785 127.409 3.37838C128.963 3.64532 129.743 3.78221 131.29 4.07653C131.4 4.09707 131.489 4.19974 131.489 4.30925C131.489 4.82944 131.489 5.08954 131.489 5.61657C131.489 5.72609 131.4 5.79453 131.29 5.774C130.887 5.69871 130.681 5.65764 130.277 5.58235C130.236 5.57551 130.182 5.58235 130.182 5.67133C130.182 7.9369 130.182 9.07311 130.182 11.3387C130.182 11.4277 130.093 11.5166 129.983 11.503C129.463 11.4071 129.203 11.3592 128.683 11.2702C128.573 11.2497 128.484 11.1265 128.484 11.0375C128.484 8.7651 128.484 7.62889 128.484 5.36332L128.491 5.37017Z" fill="black"/>
    <path d="M132.32 4.47625C132.32 4.36673 132.396 4.29144 132.505 4.31197C133.025 4.41464 133.285 4.46256 133.812 4.57207C133.929 4.5926 134.011 4.70212 134.011 4.81163C134.011 5.88624 134.011 6.42012 134.011 7.49472C134.011 7.56317 134.045 7.59739 134.1 7.61108C134.524 7.69322 134.73 7.74113 135.154 7.82327C135.209 7.83696 135.25 7.80958 135.25 7.74798C135.25 6.67337 135.25 6.13949 135.25 5.06488C135.25 4.95537 135.339 4.88692 135.435 4.90746C135.955 5.01697 136.215 5.07173 136.735 5.18124C136.845 5.20178 136.94 5.31129 136.94 5.4208C136.94 8.32977 136.94 9.78768 136.94 12.6966C136.94 12.8062 136.845 12.8746 136.735 12.8472C136.215 12.7377 135.955 12.683 135.435 12.5734C135.339 12.5529 135.25 12.4502 135.25 12.3407C135.25 11.2798 135.25 10.7528 135.25 9.68501C135.25 9.58918 135.209 9.53442 135.099 9.51389C134.723 9.4386 134.538 9.39753 134.162 9.32224C134.066 9.30171 134.011 9.33593 134.011 9.47967C134.011 10.52 134.011 11.0471 134.011 12.0875C134.011 12.197 133.936 12.2723 133.812 12.2449C133.292 12.1422 133.032 12.0875 132.505 11.9848C132.396 11.9643 132.32 11.8616 132.32 11.7521C132.32 8.84312 132.32 7.38521 132.32 4.47625Z" fill="black"/>
    <path d="M140.87 13.5689C140.87 13.6784 140.774 13.7469 140.665 13.7195C140.158 13.6031 139.905 13.5415 139.399 13.432C139.289 13.4046 139.193 13.2951 139.193 13.1856C139.193 12.1315 139.193 11.5976 139.193 10.5436C139.193 10.4546 139.193 10.3245 139.159 10.2629C138.563 8.40805 138.262 7.48402 137.667 5.63597C137.626 5.50592 137.708 5.38272 137.852 5.4101C138.42 5.5333 138.7 5.5949 139.268 5.72495C139.357 5.74549 139.433 5.82762 139.453 5.92345C139.659 6.64898 139.768 7.01174 139.973 7.73727C140.015 7.85363 140.069 7.82625 140.09 7.76465C140.295 7.13495 140.405 6.82009 140.61 6.18354C140.631 6.10141 140.706 6.05349 140.795 6.07403C141.363 6.20408 141.644 6.27252 142.212 6.40941C142.355 6.44364 142.438 6.60791 142.396 6.71742C141.801 8.29169 141.5 9.07882 140.904 10.6599C140.87 10.7078 140.87 10.8379 140.87 10.9269C140.87 11.9809 140.87 12.5148 140.87 13.5689Z" fill="black"/>
    <path d="M13.431 51.245C13.3967 51.5598 13.0819 51.9089 12.7328 52.0321C11.0696 52.6002 10.2345 52.8945 8.56443 53.4968C8.21535 53.6201 7.96895 53.4695 8.00317 53.1546C8.85191 46.3579 9.70064 39.5543 10.5494 32.7576C10.5973 32.4017 10.7958 32.0732 11.3023 31.8952C13.4104 31.156 15.5254 30.451 17.6541 29.7802C20.433 28.8904 23.9306 29.3422 23.3899 33.0656C23.253 34.3593 23.1846 35.0095 23.0545 36.31C22.5754 41.1218 18.3522 43.8801 14.1291 45.2559C13.8553 47.631 13.7116 48.8288 13.431 51.2518V51.245ZM18.01 35.9404C18.1743 34.4893 17.9142 34.1402 16.7917 34.503C16.3673 34.6399 16.162 34.7083 15.7376 34.8452C15.3954 34.9548 15.2995 35.2217 15.2859 35.3723C15.0737 37.1929 14.9642 38.1101 14.752 39.9513C14.7314 40.1361 14.752 40.273 15.1216 40.1498C15.4638 40.0335 15.6349 39.9787 15.9772 39.8692C16.9354 39.5543 17.6952 38.7261 17.8389 37.4257C17.9073 36.8302 17.9416 36.5359 18.0032 35.9404H18.01Z" fill="black"/>
    <path d="M23.7041 37.8236C24.3269 32.5532 27.1332 26.7695 32.6158 25.3732C38.3721 23.9153 40.1038 29.1583 39.6931 33.8195C39.6794 34.0385 39.6657 34.1412 39.652 34.3602C39.0976 40.0276 36.4214 45.1405 30.6787 46.7969C24.6692 48.5354 23.088 43.1966 23.6425 38.3712C23.663 38.1521 23.6767 38.0426 23.6972 37.8236H23.7041ZM34.5665 34.9283C34.7171 33.2172 34.6076 30.9653 33.5398 30.2671C32.8485 29.7948 31.4932 30.1645 30.7882 30.9516C29.4604 32.3958 29.0155 34.6408 28.8444 36.3931C28.817 36.66 28.8033 36.7901 28.7828 37.057C28.6117 38.8434 28.598 40.7531 29.7958 41.6361C30.3913 42.1083 31.7739 41.7866 32.5952 40.9242C33.7862 39.699 34.3201 37.365 34.5049 35.6128C34.5254 35.3321 34.5391 35.1953 34.5665 34.9215V34.9283Z" fill="black"/>
    <path d="M40.0961 24.4236C40.0208 24.1567 40.3767 23.7665 40.7463 23.6844C42.4438 23.3285 43.2925 23.1574 44.9832 22.8288C45.2501 22.7741 45.5376 22.9246 45.5239 23.2121C45.7634 26.0253 46.0099 28.8384 46.2494 31.6515C46.3179 32.1649 46.8312 32.0759 46.9613 31.5489C47.4951 28.5646 48.0222 25.5804 48.5561 22.5961C48.604 22.3565 48.8504 22.117 49.1584 22.0622C50.3836 21.85 50.9927 21.7474 52.2179 21.5557C52.5191 21.5078 52.7792 21.6652 52.8339 21.8843C52.9914 24.7453 53.1556 27.6132 53.3131 30.4743C53.3884 30.9602 53.9359 30.8781 53.9975 30.3374C54.593 27.3873 55.1885 24.4441 55.7908 21.4941C55.873 21.1929 56.1536 20.9534 56.4548 20.9123C58.1385 20.6796 58.9736 20.5632 60.6574 20.3647C61.0612 20.3168 61.3144 20.5975 61.2665 20.8918C59.7949 27.6269 58.3165 34.3552 56.8449 41.0903C56.7285 41.3777 56.5095 41.5626 56.2015 41.6036C54.4356 41.85 53.5526 41.9869 51.7867 42.2675C51.4719 42.3155 51.2391 42.2059 51.2186 41.9322C50.8695 39.7761 50.5205 37.6269 50.1714 35.4708C50.1235 35.1218 49.6854 35.0738 49.5896 35.5667C48.953 37.887 48.3165 40.2073 47.6799 42.5276C47.6252 42.8083 47.3719 43.0068 47.0229 43.0752C45.2843 43.3901 44.4151 43.5543 42.6765 43.9103C42.3617 43.9719 42.0947 43.876 42.0468 43.6091C41.3966 37.2025 40.7463 30.8028 40.0961 24.3962V24.4236Z" fill="black"/>
    <path d="M61.9429 20.7406C61.9566 20.4531 62.2646 20.1861 62.5726 20.1519C65.7965 19.8028 69.0134 19.5085 72.2441 19.2553C72.5795 19.2347 72.8122 19.4469 72.7985 19.7276C72.7643 21.1033 72.7438 21.7946 72.7095 23.1841C72.7027 23.4716 72.4631 23.6906 72.1209 23.718C70.2249 23.8549 69.2804 23.9302 67.3844 24.1081C67.1449 24.1287 67.008 24.2861 67.0011 24.5188C66.96 25.6482 66.9395 26.2163 66.9053 27.3525C66.9053 27.4962 67.0011 27.551 67.2065 27.5304C69.0134 27.3593 69.9238 27.284 71.7308 27.154C72.073 27.1266 72.3399 27.3182 72.3262 27.6399C72.292 29.0363 72.2715 29.7412 72.2373 31.1581C72.2304 31.4524 71.9498 31.7125 71.6075 31.7399C69.8143 31.8768 68.9108 31.9521 67.1175 32.1163C66.9121 32.1369 66.7342 32.3011 66.7273 32.4791C66.6863 33.6016 66.6657 34.1629 66.6315 35.2991C66.6178 35.6276 66.7889 35.6755 66.9943 35.655C68.9108 35.4702 69.869 35.3949 71.7855 35.2512C72.0935 35.2306 72.4015 35.4497 72.3947 35.7508C72.3605 37.1882 72.3399 37.9069 72.2989 39.3579C72.292 39.666 71.9703 39.9329 71.6623 39.9534C68.3358 40.2204 65.0162 40.5421 61.6965 40.9117C61.3817 40.9459 61.0805 40.7406 61.0942 40.4326C61.3817 33.8686 61.6623 27.2977 61.9498 20.7337L61.9429 20.7406Z" fill="black"/>
    <path d="M78.9903 38.9842C78.9903 39.2922 78.7029 39.5454 78.3606 39.5591C76.7111 39.6344 75.8829 39.6755 74.2265 39.785C73.8774 39.8055 73.6105 39.5796 73.6173 39.2785C73.7679 32.7692 73.9253 26.2532 74.0759 19.7439C74.0827 19.4017 74.2607 19.1347 74.7604 19.1005C76.8617 18.9705 78.9698 18.8746 81.0711 18.8062C83.9801 18.7514 87.6009 20.182 87.3066 23.7206C87.3066 25.0759 87.3066 25.7603 87.3066 27.1361C87.3066 29.0731 86.4441 30.531 85.171 31.5304C85.965 33.8986 86.7658 36.2668 87.5598 38.6351C87.6967 38.9978 87.4229 39.3332 86.9712 39.3401C85.2942 39.3538 84.4524 39.3675 82.7686 39.4085C82.4879 39.4154 82.2484 39.2374 82.1457 38.9978C81.3381 36.657 80.9342 35.5002 80.1402 33.2073C79.798 33.2484 79.4216 33.2347 79.0725 33.221C79.0383 35.5071 79.0177 36.657 78.9835 38.9842H78.9903ZM82.0773 25.0553C82.091 23.659 81.7898 23.2347 80.6741 23.2689C80.2566 23.2826 80.0444 23.2894 79.6269 23.31C79.2915 23.3236 79.2162 23.5564 79.2162 23.7001C79.1888 25.4523 79.1752 26.3353 79.1478 28.108C79.1478 28.286 79.1752 28.4297 79.5516 28.4161C79.8938 28.4024 80.065 28.3955 80.4072 28.3818C81.3654 28.3476 82.0499 27.7384 82.0636 26.479C82.0636 25.9041 82.0704 25.6166 82.0773 25.0485V25.0553Z" fill="black"/>
    <path d="M95.1699 19.2889C95.1699 19.0014 95.4027 18.7824 95.738 18.7892C97.3465 18.8371 98.1542 18.8714 99.7695 18.9535C100.139 18.974 100.379 19.2136 100.386 19.5011C100.433 21.8625 100.475 24.2307 100.522 26.5921C100.522 26.7701 100.632 26.859 100.796 26.8727C102.117 26.9412 102.774 26.9822 104.095 27.0712C104.266 27.0849 104.396 27.0028 104.396 26.8317C104.335 24.4634 104.273 22.102 104.212 19.7338C104.205 19.4463 104.465 19.2341 104.766 19.2615C106.375 19.3779 107.182 19.4395 108.798 19.5832C109.133 19.6106 109.441 19.8707 109.455 20.1581C109.681 26.7085 109.9 33.2656 110.125 39.8159C110.139 40.1239 109.831 40.3361 109.482 40.3019C107.812 40.1445 106.984 40.076 105.314 39.9528C104.999 39.9323 104.718 39.6653 104.711 39.3573C104.65 36.9275 104.588 34.4908 104.527 32.0609C104.52 31.794 104.383 31.664 104.034 31.6434C102.856 31.5613 102.268 31.5271 101.084 31.4586C100.776 31.4449 100.605 31.5544 100.611 31.9377C100.659 34.3265 100.707 36.7221 100.748 39.1109C100.748 39.4189 100.516 39.6448 100.132 39.6243C98.4691 39.5421 97.634 39.5011 95.9639 39.4463C95.6148 39.4326 95.3684 39.1862 95.3684 38.8782C95.3 32.3484 95.2247 25.8186 95.1562 19.282L95.1699 19.2889Z" fill="black"/>
    <path d="M110.868 29.6667C110.717 24.9644 112.593 19.5777 118.328 20.4538C124.105 21.3368 126.467 26.4908 126.816 31.8091C126.829 32.0212 126.836 32.1308 126.85 32.3429C127.124 37.2026 125.098 42.2882 119.355 41.5421C113.695 40.8029 111.08 35.4436 110.888 30.2006C110.881 29.9884 110.875 29.8789 110.868 29.6667ZM121.696 30.9466C121.607 29.256 121.176 26.9151 119.978 25.7926C119.198 25.0466 117.849 24.9028 117.233 25.4299C116.063 26.3881 115.919 28.5031 115.994 30.2211C116.008 30.4812 116.015 30.6112 116.022 30.8713C116.097 32.6236 116.35 34.5606 117.719 35.9364C118.404 36.6551 119.786 36.8672 120.512 36.306C121.566 35.5257 121.792 33.3491 121.737 31.6243C121.723 31.3505 121.716 31.2136 121.703 30.9398L121.696 30.9466Z" fill="black"/>
    <path d="M127.353 22.4935C127.332 22.2061 127.592 22.0213 127.928 22.076C129.543 22.3566 130.351 22.5004 131.966 22.8084C132.267 22.8631 132.555 23.1506 132.575 23.4381C132.904 28.0787 133.239 32.7262 133.568 37.3669C133.705 39.3039 135.019 39.6051 135.573 39.7215C136.059 39.8241 137.401 40.0432 137.25 38.1267C136.887 33.4723 136.531 28.818 136.175 24.1636C136.155 23.8761 136.374 23.6913 136.709 23.7598C138.325 24.102 139.132 24.28 140.748 24.6564C141.083 24.7317 141.37 25.0329 141.398 25.3204C141.795 29.9336 142.185 34.5401 142.582 39.1534C143.253 44.0062 139.872 45.2861 135.82 44.4032C131.685 43.5065 128.434 40.6181 128.215 36.1622C127.928 31.6037 127.64 27.0452 127.353 22.4867V22.4935Z" fill="black"/>
    <path d="M151.358 48.006C149.23 47.4037 147.087 46.8424 144.938 46.3086C144.486 46.1922 144.192 45.9389 144.144 45.4119C144.021 44.0156 143.959 43.3243 143.843 41.9485C143.822 41.7021 143.959 41.3736 144.479 41.5036C146.184 41.928 147.032 42.147 148.737 42.5988C150.776 43.1463 150.284 42.2634 149.079 40.5043C147.457 38.1771 145.663 35.9663 144.089 33.6049C142.022 30.5112 142.59 24.7411 147.696 26.3702C150.017 26.9793 151.173 27.301 153.494 27.9718C153.966 28.1087 154.267 28.4851 154.301 28.8342C154.438 30.121 154.507 30.7644 154.644 32.0649C154.685 32.455 154.445 32.7014 153.87 32.5303C152.351 32.0854 151.584 31.8732 150.065 31.4557C148.805 31.1135 147.997 31.2709 148.88 32.5577C150.886 35.3982 153.124 38.1087 154.931 41.0861C156.683 43.9814 156.163 49.6624 151.358 47.9992V48.006Z" fill="black"/>
    <path d="M155.573 29.1096C155.539 28.8153 155.82 28.6715 156.121 28.7605C159.379 29.7667 162.616 30.8207 165.847 31.9227C166.182 32.0391 166.449 32.3608 166.49 32.6619C166.668 34.0993 166.757 34.818 166.942 36.2691C166.983 36.5702 166.771 36.7003 166.429 36.5771C164.519 35.9063 163.568 35.5846 161.665 34.9549C161.425 34.8796 161.309 34.9823 161.336 35.2218C161.473 36.3923 161.542 36.974 161.679 38.1582C161.699 38.3088 161.809 38.4046 162.014 38.473C163.835 39.0753 164.745 39.3834 166.566 40.0268C166.908 40.15 167.209 40.458 167.25 40.7934C167.428 42.2513 167.524 42.9836 167.709 44.4621C167.75 44.7701 167.503 44.9207 167.154 44.7975C165.347 44.1541 164.444 43.8461 162.63 43.2437C162.425 43.1753 162.267 43.2711 162.288 43.4559C162.425 44.6195 162.493 45.2013 162.623 46.3717C162.664 46.714 162.842 46.8372 163.054 46.9056C164.985 47.549 165.95 47.8844 167.88 48.5757C168.195 48.6852 168.537 49.0548 168.578 49.3697C168.763 50.8686 168.859 51.6215 169.05 53.1411C169.091 53.4628 168.804 53.5996 168.489 53.4901C165.169 52.2855 161.815 51.1698 158.448 50.1089C158.133 50.0131 157.791 49.664 157.757 49.3423C157.031 42.5935 156.299 35.8515 155.573 29.1027V29.1096Z" fill="black"/>
    <path d="M39.041 45.0385C39.6159 46.38 40.937 47.263 42.4975 47.263C42.7713 47.263 43.0519 47.2356 43.3257 47.1808C45.0437 46.8318 45.8856 46.6743 47.6105 46.3595C48.5071 46.1952 49.2874 45.7777 49.8692 45.1822C50.3962 45.456 50.9986 45.6134 51.642 45.6134C51.861 45.6134 52.08 45.5929 52.299 45.5587C54.0444 45.278 54.9 45.148 56.6522 44.9016C57.6994 44.751 58.6166 44.2308 59.26 43.4368C59.9308 43.9433 60.759 44.2308 61.6146 44.2308C61.7652 44.2308 61.9157 44.224 62.0526 44.2034C65.3244 43.8338 68.644 43.5121 71.8952 43.252C72.3333 43.2178 72.7576 43.1083 73.1478 42.944C73.4832 43.033 73.8254 43.0877 74.1745 43.0877C74.2566 43.0877 74.3456 43.0878 74.4277 43.0809C76.0636 42.9782 76.8576 42.9372 78.5003 42.8619C79.3079 42.8277 80.0471 42.5539 80.6563 42.1158C81.2723 42.4991 81.9842 42.7113 82.7439 42.7113H82.8466C84.5167 42.6702 85.3244 42.6565 86.9876 42.6429C88.3018 42.636 89.5133 41.9995 90.232 40.9522C90.9096 39.9598 91.0738 38.6935 90.6769 37.5504C90.0951 35.8188 89.5133 34.0802 88.9315 32.3485C90.0198 30.8632 90.6016 29.0768 90.6084 27.1398V23.8475C90.7521 21.7873 90.1088 19.9255 88.7535 18.4471C87.0561 16.599 84.2498 15.5039 81.2381 15.5039C81.1628 15.5039 80.978 15.5039 80.978 15.5039C78.8493 15.5724 76.6933 15.6682 74.5714 15.7982C74.1129 15.8256 73.6748 15.9283 73.2778 16.0789C72.963 15.9967 72.6344 15.9557 72.299 15.9557C72.2032 15.9557 72.1074 15.9557 71.9979 15.9693C68.7535 16.2157 65.4681 16.5238 62.2032 16.8728C61.8678 16.9139 61.5461 16.9892 61.245 17.1055C61.0807 17.085 60.9164 17.0713 60.7522 17.0713C60.5879 17.0713 60.4236 17.0782 60.2662 17.0987C58.5687 17.304 57.6926 17.4204 56.0088 17.66C55.2354 17.7695 54.5235 18.1049 53.9417 18.5908C53.4558 18.3718 52.9082 18.2486 52.3401 18.2486C52.1279 18.2486 51.9226 18.2623 51.7172 18.2965C50.4852 18.495 49.8487 18.5977 48.6166 18.8099C47.8432 18.9468 47.1382 19.2958 46.5769 19.8023C46.1183 19.6107 45.6255 19.5149 45.1122 19.5149C44.8658 19.5149 44.6262 19.5354 44.3866 19.5833C42.6755 19.9118 41.7925 20.0898 40.0882 20.4457C38.9931 20.6784 37.9938 21.3766 37.3983 22.328C36.5016 21.9926 35.5229 21.8147 34.4825 21.8147C33.6337 21.8147 32.7371 21.931 31.8268 22.1637C28.863 22.9166 26.2895 24.6825 24.3114 27.3109C23.1683 26.5032 21.7036 26.072 20.0608 26.072C18.9657 26.072 17.8021 26.2637 16.6933 26.6127C14.5509 27.2904 12.3812 28.0159 10.2525 28.7551C8.61663 29.3232 7.51464 30.6579 7.3093 32.328L4.7631 52.725C4.63305 53.7791 4.94791 54.8263 5.63922 55.6066C6.32368 56.38 7.31615 56.8249 8.37022 56.8249C8.82197 56.8249 9.28056 56.7428 9.71861 56.5854C11.3682 55.9899 12.1758 55.7092 13.8322 55.1411C15.386 54.6073 16.5564 53.1904 16.7412 51.6162L17.2066 47.6257C18.7193 46.9823 20.054 46.2226 21.2107 45.3602C21.6077 46.3321 22.1279 47.1877 22.7645 47.9064C24.2361 49.5559 26.2347 50.4252 28.5482 50.4252C29.5201 50.4252 30.5537 50.2678 31.6214 49.9598C34.6536 49.0836 37.1724 47.3862 39.0684 45.0179L39.041 45.0385Z" fill="black"/>
    <path d="M172.313 52.7456L171.841 48.9742C171.718 48.0022 171.218 47.085 170.486 46.4006C170.897 45.7093 171.068 44.8879 170.965 44.0597L170.506 40.391C170.411 39.6381 170.103 38.9263 169.637 38.3376C170.109 37.6258 170.315 36.7428 170.205 35.8599L169.754 32.2527C169.562 30.6922 168.446 29.3369 166.906 28.7962C163.648 27.6805 160.349 26.6059 157.07 25.5929C156.701 25.4834 156.318 25.4218 155.934 25.4218C155.859 25.4218 155.79 25.4287 155.722 25.4355C155.325 25.1617 154.88 24.9427 154.401 24.8058C152.094 24.135 150.89 23.7996 148.597 23.1973C147.707 22.9235 146.851 22.7798 146.03 22.7798C145.298 22.7798 144.606 22.8893 143.956 23.1083C143.381 22.2938 142.505 21.6778 141.478 21.4382C139.849 21.0618 139.007 20.877 137.385 20.5279C137.111 20.4663 136.831 20.4389 136.557 20.4389C135.955 20.4389 135.366 20.5827 134.846 20.8496C134.264 20.1994 133.47 19.7271 132.573 19.556C130.951 19.248 130.109 19.0905 128.48 18.8099C128.255 18.7688 128.022 18.7483 127.796 18.7483C126.749 18.7483 125.743 19.1795 125.038 19.9256C125.031 19.9324 125.024 19.9461 125.01 19.9529C123.306 18.495 121.218 17.5368 118.823 17.174C118.248 17.085 117.68 17.044 117.132 17.044C115.346 17.044 113.71 17.5163 112.32 18.4129C111.711 17.2425 110.513 16.4006 109.083 16.2774C107.461 16.1336 106.619 16.0652 104.996 15.9488C104.901 15.9488 104.812 15.942 104.723 15.942C103.901 15.942 103.101 16.2089 102.443 16.6812C101.786 16.0789 100.903 15.6956 99.9246 15.6408C98.3024 15.5587 97.4606 15.5245 95.8384 15.4766C95.7973 15.4766 95.7563 15.4766 95.7152 15.4766C94.668 15.4766 93.6892 15.8804 92.9636 16.6128C92.2518 17.3315 91.8617 18.2897 91.8753 19.3096L92.0875 38.9057C92.1081 40.9865 93.7713 42.6703 95.8726 42.7387C97.529 42.7935 98.3298 42.8277 99.9794 42.9098C100.055 42.9098 100.123 42.9098 100.192 42.9098C101.088 42.9098 101.923 42.6224 102.601 42.0953C103.251 42.7319 104.12 43.1494 105.079 43.2178C106.728 43.341 107.536 43.4095 109.185 43.5601C109.309 43.5738 109.432 43.5806 109.562 43.5806C110.63 43.5806 111.656 43.1494 112.382 42.3965C112.491 42.2801 112.587 42.1638 112.683 42.0406C114.435 43.5395 116.55 44.4772 118.939 44.7921C119.452 44.8605 119.966 44.8948 120.459 44.8948C122.984 44.8948 125.202 44.0118 126.892 42.3417C128.652 44.9495 131.506 46.8318 135.12 47.6189C136.14 47.838 137.125 47.9543 138.049 47.9543C139.37 47.9543 140.452 47.7353 141.355 47.3931C141.916 48.4266 142.888 49.1863 144.134 49.5012C146.208 50.0145 148.309 50.569 150.37 51.1508C151.252 51.4451 152.115 51.5957 152.936 51.5957C153.662 51.5957 154.353 51.4793 154.99 51.2534C155.524 52.1774 156.406 52.9235 157.447 53.2452C160.999 54.3609 164.237 55.456 167.358 56.5854C167.789 56.7428 168.241 56.8181 168.686 56.8181C169.747 56.8181 170.746 56.3732 171.437 55.5929C172.122 54.8195 172.443 53.7722 172.313 52.725V52.7456Z" fill="black"/>
    <path d="M18.4922 57.5844C18.458 57.8855 18.1637 58.2072 17.8352 58.3236C16.2677 58.8575 15.4806 59.1312 13.9132 59.6993C13.5846 59.8157 13.3519 59.672 13.3861 59.3708C14.187 52.9711 14.9809 46.5714 15.7818 40.1716C15.8228 39.8362 16.0145 39.5282 16.4936 39.3571C18.4717 38.6658 20.4703 38.0019 22.469 37.3653C25.0836 36.5303 28.3759 36.9547 27.8694 40.4591C27.7462 41.6774 27.6777 42.2866 27.5545 43.5118C27.1096 48.0361 23.1329 50.6302 19.1562 51.9307C18.8961 54.162 18.766 55.2914 18.4991 57.5707L18.4922 57.5844ZM22.7975 43.1833C22.9481 41.8212 22.7085 41.4858 21.6545 41.828C21.2575 41.9581 21.059 42.0197 20.662 42.1497C20.3403 42.2524 20.2513 42.5056 20.2376 42.6425C20.0391 44.3537 19.9365 45.2161 19.738 46.9546C19.7174 47.1258 19.738 47.2627 20.087 47.1463C20.4087 47.0368 20.573 46.9889 20.8947 46.8794C21.7982 46.585 22.51 45.8048 22.6469 44.5796C22.7085 44.0183 22.7428 43.7445 22.8044 43.1833H22.7975Z" fill="black"/>
    <path d="M28.1439 44.9486C28.7257 39.9931 31.3745 34.5447 36.5354 33.2306C41.9495 31.8548 43.5853 36.7966 43.1952 41.1772C43.1815 41.3825 43.1747 41.4852 43.1541 41.6837C42.6339 47.0156 40.1151 51.8274 34.7079 53.388C29.0542 55.0239 27.5689 49.9999 28.0891 45.4551C28.1096 45.2497 28.1233 45.1471 28.1439 44.9417V44.9486ZM38.3697 42.2244C38.5066 40.6091 38.404 38.4941 37.3978 37.837C36.7476 37.3921 35.4676 37.7412 34.8105 38.4872C33.558 39.8425 33.1404 41.9643 32.983 43.6139C32.9625 43.8671 32.9488 43.9903 32.9214 44.2367C32.764 45.9205 32.7503 47.7138 33.8797 48.5488C34.4409 48.9937 35.7414 48.6926 36.5148 47.8781C37.6374 46.7282 38.137 44.531 38.315 42.8747C38.3355 42.6146 38.3492 42.4845 38.3697 42.2244Z" fill="black"/>
    <path d="M43.5808 32.3347C43.5055 32.0814 43.8478 31.7118 44.1968 31.6365C45.7916 31.3011 46.5925 31.1369 48.1873 30.8357C48.4405 30.7878 48.7143 30.9247 48.6938 31.1985C48.9196 33.8473 49.1455 36.4962 49.3782 39.1451C49.4398 39.631 49.9258 39.5421 50.049 39.0492C50.5487 36.2429 51.0483 33.4366 51.548 30.6235C51.5959 30.3976 51.8286 30.1718 52.1092 30.1238C53.2591 29.9254 53.8341 29.8295 54.9908 29.6447C55.2783 29.5968 55.5178 29.7474 55.5658 29.9596C55.7163 32.6564 55.8669 35.3531 56.0175 38.0431C56.0859 38.5017 56.5993 38.4264 56.6609 37.9199C57.2222 35.1478 57.7834 32.3689 58.3447 29.5968C58.42 29.3162 58.6869 29.0903 58.9675 29.0492C60.5486 28.8302 61.3426 28.7207 62.9237 28.529C63.3002 28.4811 63.5397 28.7481 63.4987 29.0219C62.1092 35.36 60.7266 41.6981 59.344 48.0294C59.2345 48.3032 59.0291 48.4743 58.7348 48.5154C57.0716 48.7481 56.2434 48.8713 54.5801 49.1382C54.2858 49.1861 54.0668 49.0766 54.0463 48.8234C53.7177 46.7974 53.3892 44.7713 53.0606 42.7453C53.0196 42.4168 52.602 42.3757 52.5131 42.8412C51.9107 45.0246 51.3152 47.208 50.7129 49.3983C50.665 49.6653 50.4254 49.8501 50.0969 49.9117C48.461 50.206 47.6397 50.3634 46.0038 50.6919C45.7095 50.7535 45.4562 50.6577 45.4083 50.4113C44.7992 44.3812 44.1831 38.3579 43.574 32.3278L43.5808 32.3347Z" fill="black"/>
    <path d="M64.1431 28.8704C64.1568 28.5966 64.4511 28.3502 64.7317 28.316C67.7639 27.9875 70.7961 27.7068 73.8351 27.4741C74.15 27.4536 74.369 27.6521 74.3621 27.919C74.3279 29.2126 74.3142 29.8629 74.28 31.1702C74.2732 31.444 74.0473 31.6493 73.7256 31.6699C71.946 31.7999 71.0493 31.8684 69.2697 32.0395C69.0439 32.06 68.9138 32.2106 68.907 32.4296C68.8727 33.4905 68.8522 34.0244 68.8111 35.099C68.8111 35.2359 68.9001 35.2838 69.0918 35.2633C70.7961 35.1059 71.6448 35.0306 73.3491 34.9074C73.6708 34.8868 73.9172 35.058 73.9104 35.366C73.8762 36.6801 73.8556 37.3441 73.8214 38.6788C73.8146 38.9594 73.5476 39.199 73.2259 39.2263C71.5353 39.3495 70.6934 39.4248 69.0028 39.5823C68.8111 39.6028 68.64 39.7534 68.64 39.9245C68.6058 40.9786 68.5853 41.5124 68.5442 42.5802C68.5305 42.8951 68.6948 42.9361 68.8864 42.9156C70.6934 42.7445 71.5901 42.6692 73.397 42.5323C73.6914 42.5118 73.972 42.7171 73.9651 42.9977C73.9309 44.3461 73.9104 45.0306 73.8762 46.3927C73.8693 46.6801 73.5682 46.9334 73.2738 46.9539C70.139 47.2072 67.0179 47.5083 63.8967 47.8574C63.6024 47.8916 63.3149 47.6931 63.3286 47.4057C63.5955 41.225 63.8625 35.0443 64.1294 28.8636L64.1431 28.8704Z" fill="black"/>
    <path d="M80.1755 46.039C80.1755 46.3265 79.9086 46.566 79.58 46.5797C78.0263 46.6482 77.246 46.6892 75.6923 46.7919C75.3637 46.8124 75.1105 46.6003 75.1173 46.3128C75.2611 40.1868 75.4048 34.0541 75.5485 27.9281C75.5554 27.6064 75.7196 27.3532 76.1919 27.3258C78.17 27.2026 80.155 27.1136 82.1331 27.052C84.8709 27.0041 88.2795 28.3525 87.9989 31.679C87.9989 32.9589 87.9989 33.5955 87.9989 34.8891C87.9989 36.7098 87.1912 38.0787 85.9934 39.0233C86.7463 41.2546 87.4924 43.486 88.2385 45.7105C88.3685 46.0527 88.1084 46.3675 87.6841 46.3744C86.1029 46.3881 85.3158 46.3949 83.7347 46.436C83.4746 46.436 83.2487 46.2786 83.1529 46.0527C82.3932 43.8487 82.0167 42.7604 81.2706 40.6044C80.9489 40.6454 80.593 40.6318 80.2713 40.6181C80.2371 42.7673 80.2234 43.8556 80.1892 46.0458L80.1755 46.039ZM83.0845 32.9315C83.0982 31.6174 82.8175 31.2135 81.7635 31.2546C81.3665 31.2683 81.1748 31.2751 80.7778 31.2888C80.463 31.3025 80.3945 31.5216 80.3877 31.6584C80.3603 33.308 80.3535 34.1362 80.3261 35.8131C80.3261 35.9774 80.3535 36.1143 80.7094 36.1006C81.0311 36.0869 81.1885 36.0801 81.5102 36.0732C82.4068 36.039 83.0571 35.4709 83.0708 34.2868C83.0708 33.7461 83.0776 33.4791 83.0845 32.9384V32.9315Z" fill="black"/>
    <path d="M95.4141 27.509C95.4141 27.2421 95.6331 27.0299 95.9479 27.0436C97.4674 27.0915 98.2204 27.1189 99.7399 27.1942C100.089 27.2079 100.315 27.4406 100.315 27.7075C100.356 29.932 100.404 32.1565 100.445 34.381C100.445 34.5453 100.548 34.6343 100.705 34.6411C101.944 34.7096 102.567 34.7438 103.812 34.8328C103.97 34.8465 104.1 34.7712 104.093 34.6069C104.038 32.3824 103.977 30.1511 103.922 27.9266C103.915 27.6596 104.161 27.4611 104.449 27.4817C105.968 27.5912 106.721 27.6528 108.241 27.7828C108.556 27.8102 108.85 28.0498 108.857 28.3235C109.069 34.4905 109.281 40.6576 109.487 46.8246C109.493 47.112 109.213 47.3174 108.884 47.2832C107.317 47.1394 106.53 47.071 104.962 46.9546C104.668 46.9341 104.401 46.6808 104.394 46.4002C104.333 44.1141 104.278 41.8211 104.216 39.535C104.216 39.2818 104.079 39.1586 103.758 39.1381C102.649 39.0628 102.094 39.0285 100.986 38.9669C100.698 38.9532 100.534 39.0559 100.541 39.4187C100.582 41.6706 100.63 43.9156 100.671 46.1675C100.671 46.455 100.452 46.674 100.096 46.6535C98.5284 46.5713 97.7412 46.5371 96.1738 46.4892C95.8453 46.4755 95.6126 46.2428 95.6126 45.9553C95.5441 39.8088 95.4757 33.6623 95.4141 27.5159V27.509Z" fill="black"/>
    <path d="M110.196 37.2683C110.052 32.8398 111.818 27.7748 117.218 28.5961C122.653 29.4243 124.877 34.2772 125.206 39.2806C125.219 39.4791 125.226 39.5817 125.24 39.7871C125.493 44.3593 123.59 49.1437 118.183 48.4455C112.858 47.7542 110.394 42.7029 110.216 37.7679C110.209 37.5694 110.202 37.4668 110.196 37.2683ZM120.387 38.4798C120.305 36.885 119.901 34.6878 118.765 33.6269C118.033 32.9288 116.76 32.785 116.185 33.2847C115.083 34.1882 114.946 36.1731 115.021 37.7953C115.035 38.0417 115.035 38.1649 115.048 38.4113C115.124 40.0609 115.363 41.8815 116.643 43.1752C117.287 43.8528 118.587 44.0513 119.271 43.5243C120.264 42.785 120.476 40.7385 120.421 39.1232C120.408 38.8631 120.401 38.7399 120.387 38.4798Z" fill="black"/>
    <path d="M125.697 30.5175C125.676 30.2437 125.916 30.0726 126.237 30.1274C127.757 30.3875 128.517 30.5312 130.036 30.8187C130.324 30.8734 130.59 31.1404 130.611 31.4142C130.926 35.781 131.234 40.1547 131.549 44.5216C131.679 46.3491 132.918 46.6298 133.438 46.7393C133.896 46.8351 135.156 47.0404 135.019 45.2403C134.684 40.8597 134.341 36.4792 134.006 32.0986C133.985 31.8248 134.191 31.6537 134.506 31.7222C136.025 32.0439 136.785 32.215 138.304 32.5641C138.619 32.6394 138.893 32.9131 138.92 33.1869C139.29 37.5264 139.66 41.8659 140.036 46.2054C140.666 50.7708 137.483 51.9754 133.677 51.1472C129.79 50.3053 126.73 47.5812 126.525 43.3923C126.251 39.1007 125.984 34.8091 125.71 30.5244L125.697 30.5175Z" fill="black"/>
    <path d="M148.267 54.5434C146.262 53.9822 144.25 53.4483 142.23 52.9418C141.806 52.8323 141.525 52.5927 141.484 52.0999C141.368 50.7857 141.313 50.1355 141.204 48.8418C141.183 48.6091 141.313 48.3011 141.806 48.4243C143.408 48.8213 144.209 49.0266 145.81 49.4579C147.734 49.9712 147.268 49.143 146.132 47.4866C144.606 45.2963 142.915 43.2156 141.436 40.9911C139.493 38.0821 140.026 32.6475 144.831 34.1875C147.015 34.7624 148.103 35.0636 150.287 35.6933C150.731 35.8234 151.012 36.1724 151.046 36.5078C151.176 37.7193 151.238 38.3285 151.368 39.5468C151.409 39.9096 151.183 40.1423 150.642 39.9849C149.212 39.5674 148.493 39.362 147.063 38.9719C145.879 38.6502 145.112 38.8008 145.947 40.0054C147.836 42.6817 149.944 45.2279 151.642 48.0342C153.291 50.7583 152.799 56.104 148.281 54.5434H148.267Z" fill="black"/>
    <path d="M152.252 36.75C152.225 36.4694 152.485 36.3325 152.772 36.4215C155.839 37.366 158.884 38.3585 161.923 39.3989C162.238 39.5084 162.492 39.8096 162.526 40.097C162.697 41.4454 162.779 42.1231 162.95 43.492C162.984 43.7795 162.786 43.8958 162.464 43.7863C160.671 43.1566 159.774 42.8486 157.981 42.26C157.755 42.1847 157.646 42.2873 157.673 42.5132C157.803 43.6152 157.865 44.1628 157.995 45.2716C158.008 45.4153 158.118 45.5043 158.309 45.5659C160.021 46.134 160.883 46.4215 162.594 47.0307C162.916 47.147 163.197 47.4345 163.238 47.7562C163.409 49.132 163.491 49.8233 163.669 51.2059C163.703 51.5002 163.477 51.6371 163.149 51.5207C161.444 50.9184 160.596 50.6241 158.891 50.056C158.7 49.9944 158.549 50.0834 158.57 50.2545C158.7 51.3496 158.761 51.8972 158.891 52.9992C158.925 53.3209 159.097 53.4372 159.295 53.4988C161.109 54.108 162.019 54.4229 163.84 55.0731C164.134 55.1758 164.456 55.518 164.497 55.8192C164.675 57.2291 164.764 57.941 164.942 59.3647C164.976 59.6658 164.716 59.7959 164.415 59.6932C161.294 58.5639 158.138 57.5098 154.969 56.5105C154.675 56.4146 154.353 56.0861 154.319 55.7918C153.635 49.44 152.95 43.095 152.266 36.7432L152.252 36.75Z" fill="black"/>
    <path d="M42.5798 51.7286C43.1205 52.988 44.3662 53.8162 45.831 53.8162C46.0911 53.8162 46.3512 53.7889 46.6113 53.7409C48.2266 53.4124 49.0206 53.2618 50.6427 52.9675C51.4846 52.8169 52.217 52.4199 52.7714 51.8587C53.2642 52.1188 53.8323 52.2625 54.4415 52.2625C54.6469 52.2625 54.859 52.2488 55.0644 52.2146C56.7071 51.9545 57.5079 51.8313 59.1575 51.5986C60.1431 51.4617 61.0055 50.962 61.6078 50.2228C62.2375 50.7019 63.0178 50.9757 63.8255 50.9757C63.9692 50.9757 64.113 50.9689 64.2362 50.9552C67.3163 50.6061 70.4374 50.3049 73.5038 50.0585C73.9213 50.0243 74.3115 49.9285 74.6811 49.7711C74.9959 49.8532 75.3176 49.9011 75.6462 49.9011C75.7283 49.9011 75.8036 49.9011 75.8857 49.8943C77.4258 49.7984 78.1718 49.7574 79.7187 49.6889C80.4785 49.6547 81.1766 49.4014 81.7516 48.9839C82.3265 49.3398 83.0041 49.5452 83.716 49.5452H83.8118C85.3792 49.5041 86.1458 49.4904 87.7064 49.4836C88.9453 49.4767 90.0815 48.8813 90.7591 47.8956C91.4025 46.9579 91.5531 45.7738 91.1766 44.6992C90.6291 43.0702 90.0815 41.4343 89.5339 39.8053C90.5606 38.409 91.1082 36.7252 91.1082 34.9045V31.8039C91.2451 29.8669 90.6359 28.1147 89.3628 26.7252C87.768 24.9867 85.126 23.9531 82.2923 23.9531C82.2238 23.9531 82.0459 23.9531 82.0459 23.9531C80.0404 24.0147 78.0144 24.1106 76.0158 24.2338C75.5846 24.2611 75.1739 24.357 74.7974 24.5007C74.5031 24.4254 74.1951 24.3843 73.8802 24.3843C73.7913 24.3843 73.7023 24.3843 73.5928 24.398C70.5401 24.6307 67.4463 24.9182 64.3799 25.2468C64.0651 25.281 63.7639 25.3563 63.4764 25.4658C63.3258 25.4453 63.1684 25.4316 63.011 25.4316C62.8536 25.4316 62.703 25.4384 62.5524 25.4589C60.9576 25.6506 60.1362 25.7601 58.5414 25.986C57.8159 26.0886 57.1451 26.4035 56.5976 26.8621C56.139 26.6568 55.6256 26.5404 55.0918 26.5404C54.8933 26.5404 54.6948 26.5541 54.5031 26.5883C53.3464 26.7731 52.744 26.8689 51.5805 27.0743C50.8481 27.1975 50.191 27.5329 49.664 28.0051C49.2328 27.8272 48.7673 27.7314 48.2882 27.7314C48.0555 27.7314 47.8296 27.7519 47.6037 27.793C45.9952 28.101 45.1602 28.2721 43.5586 28.6075C42.5319 28.8265 41.5873 29.4836 41.026 30.3802C40.1773 30.0654 39.2601 29.9011 38.2814 29.9011C37.4805 29.9011 36.6386 30.0106 35.7762 30.2296C32.9905 30.9346 30.5675 32.6047 28.6989 35.0688C27.6243 34.309 26.2485 33.9052 24.6948 33.9052C23.6681 33.9052 22.5661 34.0832 21.5257 34.4186C19.5065 35.0551 17.4668 35.7327 15.4682 36.4377C13.9282 36.9716 12.8946 38.231 12.6961 39.7984L10.3005 58.9976C10.1773 59.9901 10.4785 60.9757 11.1219 61.7081C11.7653 62.4336 12.703 62.8511 13.6955 62.8511C14.1198 62.8511 14.551 62.7759 14.9686 62.6253C16.5223 62.064 17.2752 61.7971 18.8358 61.27C20.3005 60.7704 21.4025 59.4357 21.5736 57.9504L22.0117 54.1927C23.4354 53.5904 24.6948 52.8717 25.7831 52.0572C26.1595 52.9743 26.6455 53.782 27.2478 54.4528C28.6304 56.0065 30.5127 56.821 32.6961 56.821C33.6065 56.821 34.5784 56.6773 35.5846 56.383C38.4388 55.5616 40.807 53.96 42.5935 51.7355L42.5798 51.7286Z" fill="black"/>
    <path d="M168.003 58.982L167.559 55.4365C167.442 54.5193 166.97 53.6569 166.279 53.0135C166.662 52.3632 166.826 51.5898 166.73 50.8164L166.299 47.3667C166.21 46.6548 165.923 45.9909 165.478 45.4365C165.923 44.7657 166.114 43.9375 166.012 43.1025L165.587 39.7075C165.402 38.2359 164.355 36.9628 162.904 36.4563C159.838 35.4091 156.73 34.3961 153.643 33.4447C153.294 33.342 152.938 33.2873 152.576 33.2873C152.507 33.2873 152.439 33.2873 152.37 33.301C152.001 33.0409 151.583 32.8355 151.131 32.7055C148.962 32.0758 147.825 31.7609 145.669 31.1928C144.834 30.9327 144.027 30.8027 143.26 30.8027C142.569 30.8027 141.919 30.9053 141.309 31.1107C140.769 30.3441 139.94 29.7623 138.975 29.5432C137.442 29.1873 136.655 29.0162 135.122 28.6877C134.862 28.6329 134.602 28.6055 134.342 28.6055C133.773 28.6055 133.219 28.7424 132.726 28.9957C132.179 28.3797 131.433 27.9348 130.591 27.7773C129.064 27.483 128.277 27.3393 126.737 27.0792C126.525 27.045 126.306 27.0244 126.094 27.0244C125.108 27.0244 124.157 27.4283 123.5 28.1333C123.493 28.1401 123.486 28.1538 123.479 28.1606C121.871 26.7849 119.913 25.8882 117.654 25.5391C117.114 25.457 116.58 25.4159 116.066 25.4159C114.383 25.4159 112.849 25.8608 111.535 26.7027C110.96 25.6007 109.831 24.8136 108.489 24.6904C106.963 24.5535 106.169 24.4919 104.643 24.3824C104.554 24.3824 104.472 24.3756 104.383 24.3756C103.609 24.3756 102.856 24.622 102.24 25.0737C101.617 24.5056 100.796 24.1428 99.8652 24.0949C98.3388 24.0196 97.5449 23.9854 96.0185 23.9375C95.9774 23.9375 95.9364 23.9375 95.9022 23.9375C94.9165 23.9375 93.9925 24.314 93.308 25.0053C92.6373 25.6829 92.2745 26.5864 92.2813 27.5446L92.4798 45.984C92.5004 47.9416 94.0678 49.5227 96.0459 49.5912C97.5996 49.6391 98.3594 49.6733 99.9063 49.7554C99.9747 49.7554 100.043 49.7554 100.112 49.7554C100.953 49.7554 101.741 49.4885 102.377 48.9888C102.986 49.5843 103.808 49.9813 104.704 50.0498C106.258 50.1661 107.018 50.2277 108.572 50.3715C108.688 50.3851 108.804 50.3851 108.921 50.3851C109.927 50.3851 110.892 49.9813 111.576 49.2695C111.679 49.16 111.775 49.0504 111.864 48.9341C113.513 50.3441 115.505 51.227 117.75 51.5213C118.236 51.5829 118.715 51.6172 119.181 51.6172C121.556 51.6172 123.643 50.789 125.231 49.2147C126.888 51.6651 129.578 53.4378 132.979 54.1771C133.938 54.3824 134.869 54.4919 135.738 54.4919C136.977 54.4919 138.003 54.2797 138.845 53.9649C139.372 54.9368 140.29 55.6555 141.46 55.9498C143.411 56.4358 145.389 56.956 147.326 57.5036C148.161 57.7842 148.969 57.9211 149.742 57.9211C150.426 57.9211 151.07 57.8116 151.672 57.5994C152.179 58.4686 153.007 59.1668 153.986 59.4748C157.326 60.5289 160.379 61.5556 163.308 62.6165C163.712 62.7602 164.136 62.8355 164.561 62.8355C165.56 62.8355 166.504 62.418 167.148 61.6788C167.791 60.9464 168.092 59.9676 167.969 58.982H168.003Z" fill="black"/>
    <path d="M11.1226 61.6938L5.30469 55.2051L26.2903 35.9648H76.5709L87.5976 37.6349L90.8967 38.6616L91.3759 45.6158L63.3334 45.9785L46.0028 50.6945L40.6367 50.5507L32.163 55.1298L26.7215 49.8868L21.2732 52.3577L18.4874 57.5802L11.1226 61.6938Z" fill="black"/>
    <path d="M92.1484 39.4414L92.518 45.978L132.908 48.312L159.178 56.8336L166.385 60.2833L167.528 61.221L171.457 55.6084L165.783 53.8288L138.035 45.7453L105.345 39.9548L92.1484 39.4414Z" fill="black"/>
    <path d="M13.431 51.245C13.3967 51.5598 13.0819 51.9089 12.7328 52.0321C11.0696 52.6002 10.2345 52.8945 8.56443 53.4968C8.21535 53.6201 7.96895 53.4695 8.00317 53.1546C8.85191 46.3579 9.70064 39.5543 10.5494 32.7576C10.5973 32.4017 10.7958 32.0732 11.3023 31.8952C13.4104 31.156 15.5254 30.451 17.6541 29.7802C20.433 28.8904 23.9306 29.3422 23.3899 33.0656C23.253 34.3593 23.1846 35.0095 23.0545 36.31C22.5754 41.1218 18.3522 43.8801 14.1291 45.2559C13.8553 47.631 13.7116 48.8288 13.431 51.2518V51.245ZM18.01 35.9404C18.1743 34.4893 17.9142 34.1402 16.7917 34.503C16.3673 34.6399 16.162 34.7083 15.7376 34.8452C15.3954 34.9548 15.2995 35.2217 15.2859 35.3723C15.0737 37.1929 14.9642 38.1101 14.752 39.9513C14.7314 40.1361 14.752 40.273 15.1216 40.1498C15.4638 40.0335 15.6349 39.9787 15.9772 39.8692C16.9354 39.5543 17.6952 38.7261 17.8389 37.4257C17.9073 36.8302 17.9416 36.5359 18.0032 35.9404H18.01Z" fill="#FFE800"/>
    <path d="M23.7041 37.8236C24.3269 32.5532 27.1332 26.7695 32.6158 25.3732C38.3721 23.9153 40.1038 29.1583 39.6931 33.8195C39.6794 34.0385 39.6657 34.1412 39.652 34.3602C39.0976 40.0276 36.4214 45.1405 30.6787 46.7969C24.6692 48.5354 23.088 43.1966 23.6425 38.3712C23.663 38.1521 23.6767 38.0426 23.6972 37.8236H23.7041ZM34.5665 34.9283C34.7171 33.2172 34.6076 30.9653 33.5398 30.2671C32.8485 29.7948 31.4932 30.1645 30.7882 30.9516C29.4604 32.3958 29.0155 34.6408 28.8444 36.3931C28.817 36.66 28.8033 36.7901 28.7828 37.057C28.6117 38.8434 28.598 40.7531 29.7958 41.6361C30.3913 42.1083 31.7739 41.7866 32.5952 40.9242C33.7862 39.699 34.3201 37.365 34.5049 35.6128C34.5254 35.3321 34.5391 35.1953 34.5665 34.9215V34.9283Z" fill="#FFE800"/>
    <path d="M40.0961 24.4236C40.0208 24.1567 40.3767 23.7665 40.7463 23.6844C42.4438 23.3285 43.2925 23.1574 44.9832 22.8288C45.2501 22.7741 45.5376 22.9246 45.5239 23.2121C45.7634 26.0253 46.0099 28.8384 46.2494 31.6515C46.3179 32.1649 46.8312 32.0759 46.9613 31.5489C47.4951 28.5646 48.0222 25.5804 48.5561 22.5961C48.604 22.3565 48.8504 22.117 49.1584 22.0622C50.3836 21.85 50.9927 21.7474 52.2179 21.5557C52.5191 21.5078 52.7792 21.6652 52.8339 21.8843C52.9914 24.7453 53.1556 27.6132 53.3131 30.4743C53.3884 30.9602 53.9359 30.8781 53.9975 30.3374C54.593 27.3873 55.1885 24.4441 55.7908 21.4941C55.873 21.1929 56.1536 20.9534 56.4548 20.9123C58.1385 20.6796 58.9736 20.5632 60.6574 20.3647C61.0612 20.3168 61.3144 20.5975 61.2665 20.8918C59.7949 27.6269 58.3165 34.3552 56.8449 41.0903C56.7285 41.3777 56.5095 41.5626 56.2015 41.6036C54.4356 41.85 53.5526 41.9869 51.7867 42.2675C51.4719 42.3155 51.2391 42.2059 51.2186 41.9322C50.8695 39.7761 50.5205 37.6269 50.1714 35.4708C50.1235 35.1218 49.6854 35.0738 49.5896 35.5667C48.953 37.887 48.3165 40.2073 47.6799 42.5276C47.6252 42.8083 47.3719 43.0068 47.0229 43.0752C45.2843 43.3901 44.4151 43.5543 42.6765 43.9103C42.3617 43.9719 42.0947 43.876 42.0468 43.6091C41.3966 37.2025 40.7463 30.8028 40.0961 24.3962V24.4236Z" fill="#FFE800"/>
    <path d="M61.9429 20.7406C61.9566 20.4531 62.2646 20.1861 62.5726 20.1519C65.7965 19.8028 69.0134 19.5085 72.2441 19.2553C72.5795 19.2347 72.8122 19.4469 72.7985 19.7276C72.7643 21.1033 72.7438 21.7946 72.7095 23.1841C72.7027 23.4716 72.4631 23.6906 72.1209 23.718C70.2249 23.8549 69.2804 23.9302 67.3844 24.1081C67.1449 24.1287 67.008 24.2861 67.0011 24.5188C66.96 25.6482 66.9395 26.2163 66.9053 27.3525C66.9053 27.4962 67.0011 27.551 67.2065 27.5304C69.0134 27.3593 69.9238 27.284 71.7308 27.154C72.073 27.1266 72.3399 27.3182 72.3262 27.6399C72.292 29.0363 72.2715 29.7412 72.2373 31.1581C72.2304 31.4524 71.9498 31.7125 71.6075 31.7399C69.8143 31.8768 68.9108 31.9521 67.1175 32.1163C66.9121 32.1369 66.7342 32.3011 66.7273 32.4791C66.6863 33.6016 66.6657 34.1629 66.6315 35.2991C66.6178 35.6276 66.7889 35.6755 66.9943 35.655C68.9108 35.4702 69.869 35.3949 71.7855 35.2512C72.0935 35.2306 72.4015 35.4497 72.3947 35.7508C72.3605 37.1882 72.3399 37.9069 72.2989 39.3579C72.292 39.666 71.9703 39.9329 71.6623 39.9534C68.3358 40.2204 65.0162 40.5421 61.6965 40.9117C61.3817 40.9459 61.0805 40.7406 61.0942 40.4326C61.3817 33.8686 61.6623 27.2977 61.9498 20.7337L61.9429 20.7406Z" fill="#FFE800"/>
    <path d="M78.9903 38.9842C78.9903 39.2922 78.7029 39.5454 78.3606 39.5591C76.7111 39.6344 75.8829 39.6755 74.2265 39.785C73.8774 39.8055 73.6105 39.5796 73.6173 39.2785C73.7679 32.7692 73.9253 26.2532 74.0759 19.7439C74.0827 19.4017 74.2607 19.1347 74.7604 19.1005C76.8617 18.9705 78.9698 18.8746 81.0711 18.8062C83.9801 18.7514 87.6009 20.182 87.3066 23.7206C87.3066 25.0759 87.3066 25.7603 87.3066 27.1361C87.3066 29.0731 86.4441 30.531 85.171 31.5304C85.965 33.8986 86.7658 36.2668 87.5598 38.6351C87.6967 38.9978 87.4229 39.3332 86.9712 39.3401C85.2942 39.3538 84.4524 39.3675 82.7686 39.4085C82.4879 39.4154 82.2484 39.2374 82.1457 38.9978C81.3381 36.657 80.9342 35.5002 80.1402 33.2073C79.798 33.2484 79.4216 33.2347 79.0725 33.221C79.0383 35.5071 79.0177 36.657 78.9835 38.9842H78.9903ZM82.0773 25.0553C82.091 23.659 81.7898 23.2347 80.6741 23.2689C80.2566 23.2826 80.0444 23.2894 79.6269 23.31C79.2915 23.3236 79.2162 23.5564 79.2162 23.7001C79.1888 25.4523 79.1752 26.3353 79.1478 28.108C79.1478 28.286 79.1752 28.4297 79.5516 28.4161C79.8938 28.4024 80.065 28.3955 80.4072 28.3818C81.3654 28.3476 82.0499 27.7384 82.0636 26.479C82.0636 25.9041 82.0704 25.6166 82.0773 25.0485V25.0553Z" fill="#FFE800"/>
    <path d="M95.1699 19.2889C95.1699 19.0014 95.4027 18.7824 95.738 18.7892C97.3465 18.8371 98.1542 18.8714 99.7695 18.9535C100.139 18.974 100.379 19.2136 100.386 19.5011C100.433 21.8625 100.475 24.2307 100.522 26.5921C100.522 26.7701 100.632 26.859 100.796 26.8727C102.117 26.9412 102.774 26.9822 104.095 27.0712C104.266 27.0849 104.396 27.0028 104.396 26.8317C104.335 24.4634 104.273 22.102 104.212 19.7338C104.205 19.4463 104.465 19.2341 104.766 19.2615C106.375 19.3779 107.182 19.4395 108.798 19.5832C109.133 19.6106 109.441 19.8707 109.455 20.1581C109.681 26.7085 109.9 33.2656 110.125 39.8159C110.139 40.1239 109.831 40.3361 109.482 40.3019C107.812 40.1445 106.984 40.076 105.314 39.9528C104.999 39.9323 104.718 39.6653 104.711 39.3573C104.65 36.9275 104.588 34.4908 104.527 32.0609C104.52 31.794 104.383 31.664 104.034 31.6434C102.856 31.5613 102.268 31.5271 101.084 31.4586C100.776 31.4449 100.605 31.5544 100.611 31.9377C100.659 34.3265 100.707 36.7221 100.748 39.1109C100.748 39.4189 100.516 39.6448 100.132 39.6243C98.4691 39.5421 97.634 39.5011 95.9639 39.4463C95.6148 39.4326 95.3684 39.1862 95.3684 38.8782C95.3 32.3484 95.2247 25.8186 95.1562 19.282L95.1699 19.2889Z" fill="#FFE800"/>
    <path d="M110.868 29.6667C110.717 24.9644 112.593 19.5777 118.328 20.4538C124.105 21.3368 126.467 26.4908 126.816 31.8091C126.829 32.0212 126.836 32.1308 126.85 32.3429C127.124 37.2026 125.098 42.2882 119.355 41.5421C113.695 40.8029 111.08 35.4436 110.888 30.2006C110.881 29.9884 110.875 29.8789 110.868 29.6667ZM121.696 30.9466C121.607 29.256 121.176 26.9151 119.978 25.7926C119.198 25.0466 117.849 24.9028 117.233 25.4299C116.063 26.3881 115.919 28.5031 115.994 30.2211C116.008 30.4812 116.015 30.6112 116.022 30.8713C116.097 32.6236 116.35 34.5606 117.719 35.9364C118.404 36.6551 119.786 36.8672 120.512 36.306C121.566 35.5257 121.792 33.3491 121.737 31.6243C121.723 31.3505 121.716 31.2136 121.703 30.9398L121.696 30.9466Z" fill="#FFE800"/>
    <path d="M127.353 22.4935C127.332 22.2061 127.592 22.0213 127.928 22.076C129.543 22.3566 130.351 22.5004 131.966 22.8084C132.267 22.8631 132.555 23.1506 132.575 23.4381C132.904 28.0787 133.239 32.7262 133.568 37.3669C133.705 39.3039 135.019 39.6051 135.573 39.7215C136.059 39.8241 137.401 40.0432 137.25 38.1267C136.887 33.4723 136.531 28.818 136.175 24.1636C136.155 23.8761 136.374 23.6913 136.709 23.7598C138.325 24.102 139.132 24.28 140.748 24.6564C141.083 24.7317 141.37 25.0329 141.398 25.3204C141.795 29.9336 142.185 34.5401 142.582 39.1534C143.253 44.0062 139.872 45.2861 135.82 44.4032C131.685 43.5065 128.434 40.6181 128.215 36.1622C127.928 31.6037 127.64 27.0452 127.353 22.4867V22.4935Z" fill="#FFE800"/>
    <path d="M151.358 48.006C149.23 47.4037 147.087 46.8424 144.938 46.3086C144.486 46.1922 144.192 45.9389 144.144 45.4119C144.021 44.0156 143.959 43.3243 143.843 41.9485C143.822 41.7021 143.959 41.3736 144.479 41.5036C146.184 41.928 147.032 42.147 148.737 42.5988C150.776 43.1463 150.284 42.2634 149.079 40.5043C147.457 38.1771 145.663 35.9663 144.089 33.6049C142.022 30.5112 142.59 24.7411 147.696 26.3702C150.017 26.9793 151.173 27.301 153.494 27.9718C153.966 28.1087 154.267 28.4851 154.301 28.8342C154.438 30.121 154.507 30.7644 154.644 32.0649C154.685 32.455 154.445 32.7014 153.87 32.5303C152.351 32.0854 151.584 31.8732 150.065 31.4557C148.805 31.1135 147.997 31.2709 148.88 32.5577C150.886 35.3982 153.124 38.1087 154.931 41.0861C156.683 43.9814 156.163 49.6624 151.358 47.9992V48.006Z" fill="#FFE800"/>
    <path d="M155.573 29.1096C155.539 28.8153 155.82 28.6715 156.121 28.7605C159.379 29.7667 162.616 30.8207 165.847 31.9227C166.182 32.0391 166.449 32.3608 166.49 32.6619C166.668 34.0993 166.757 34.818 166.942 36.2691C166.983 36.5702 166.771 36.7003 166.429 36.5771C164.519 35.9063 163.568 35.5846 161.665 34.9549C161.425 34.8796 161.309 34.9823 161.336 35.2218C161.473 36.3923 161.542 36.974 161.679 38.1582C161.699 38.3088 161.809 38.4046 162.014 38.473C163.835 39.0753 164.745 39.3834 166.566 40.0268C166.908 40.15 167.209 40.458 167.25 40.7934C167.428 42.2513 167.524 42.9836 167.709 44.4621C167.75 44.7701 167.503 44.9207 167.154 44.7975C165.347 44.1541 164.444 43.8461 162.63 43.2437C162.425 43.1753 162.267 43.2711 162.288 43.4559C162.425 44.6195 162.493 45.2013 162.623 46.3717C162.664 46.714 162.842 46.8372 163.054 46.9056C164.985 47.549 165.95 47.8844 167.88 48.5757C168.195 48.6852 168.537 49.0548 168.578 49.3697C168.763 50.8686 168.859 51.6215 169.05 53.1411C169.091 53.4628 168.804 53.5996 168.489 53.4901C165.169 52.2855 161.815 51.1698 158.448 50.1089C158.133 50.0131 157.791 49.664 157.757 49.3423C157.031 42.5935 156.299 35.8515 155.573 29.1027V29.1096Z" fill="#FFE800"/>
    <path d="M99.2735 55.7396C99.2667 55.2399 99.6431 54.8703 100.252 54.9045C102.778 55.0551 105.304 55.2605 107.822 55.5137C108.213 55.5548 108.603 55.7943 108.726 56.1982C110.266 59.6684 111.792 63.1386 113.319 66.6157C113.504 66.999 113.805 67.4507 114.085 67.485C114.421 67.526 114.633 67.1427 114.783 66.8073C115.974 63.6793 117.165 60.5582 118.356 57.4371C118.555 57.0743 118.877 56.9237 119.321 56.9922C121.854 57.3891 124.386 57.8409 126.905 58.3405C127.46 58.4501 127.932 58.9429 127.966 59.4425C128.815 71.3043 129.664 83.1728 130.519 95.0346C130.567 95.6643 130.122 95.9586 129.527 95.8354C127.186 95.3426 124.838 94.884 122.484 94.4733C121.895 94.3707 121.395 93.8915 121.361 93.2687C121.046 87.704 120.738 82.1325 120.423 76.5678C120.341 76.1297 120.109 76.0407 119.965 76.4377C118.569 79.4836 117.179 82.5294 115.79 85.5753C115.146 86.6362 114.297 85.8696 114.044 85.3426C112.36 81.8861 110.67 78.4295 108.972 74.9798C108.788 74.5349 108.5 74.5623 108.514 74.9798C108.705 80.5103 108.904 86.0476 109.096 91.578C109.116 92.2009 108.603 92.5363 108.069 92.4884C105.735 92.2557 103.394 92.064 101.046 91.9134C100.396 91.8724 99.9785 91.4548 99.9648 90.832C99.739 79.1345 99.5063 67.437 99.2804 55.7327L99.2735 55.7396Z" fill="#721119"/>
    <path d="M52.3815 95.5618L49.5547 92.4064L63.7915 61.7494L90.6909 59.9492L110.178 69.9287L123.88 69.6275L127.809 91.6056L132.553 97.3483L130.746 99.8397H123.88L113.88 81.9547L103.045 77.3825L95.8244 65.3154L85.7354 75.3838L74.4965 63.9875L72.6758 67.0745L71.5875 92.9266L52.3815 95.5618Z" fill="#721119"/>
    <path d="M130.75 59.2448C130.627 57.4858 129.237 55.9526 127.444 55.6035C124.898 55.097 122.31 54.6384 119.757 54.2346C119.545 54.2003 119.326 54.1867 119.121 54.1867C117.765 54.1867 116.568 54.8985 115.911 56.1031L115.822 56.2674L115.753 56.4454C115.158 58.0128 114.555 59.5734 113.96 61.1408C113.118 59.2311 112.228 57.212 111.332 55.1791C110.832 53.8376 109.586 52.893 108.108 52.7424C105.562 52.4892 102.981 52.277 100.428 52.1264C100.346 52.1264 100.257 52.1196 100.175 52.1196C99.771 52.1196 99.374 52.1812 99.0044 52.2975C98.5732 52.1127 98.1077 51.9964 97.6218 51.9758C95.1851 51.8663 92.721 51.7979 90.2843 51.7773H90.2501C88.6074 51.7773 87.1426 52.852 86.6635 54.3988C86.5608 54.7 86.4513 55.008 86.3487 55.3092C86.2528 55.0354 86.1639 54.7548 86.068 54.481C85.5957 52.9341 84.1447 51.8663 82.5088 51.8663C82.4678 51.8663 82.4267 51.8663 82.3856 51.8663C79.9489 51.9485 77.478 52.0717 75.0482 52.2428C74.3295 52.2907 73.645 52.5439 73.0701 52.9478H73.0496L72.9263 52.9204C71.7012 52.6671 70.4007 52.5371 69.0591 52.5371C67.6286 52.5371 66.1159 52.6808 64.5691 52.9752C59.0112 54.0155 54.2063 57.0409 50.6813 61.7226C47.5191 65.9183 45.5478 71.3051 45.1372 76.8971C44.6649 83.3379 46.2323 88.8478 49.5451 92.4207C52.2077 95.2886 55.9106 96.8013 60.2569 96.8013C61.1741 96.8013 62.1324 96.7329 63.1043 96.6028C66.157 96.1921 69.0523 95.316 71.9613 93.9266L72.0981 93.8581L72.2282 93.776C74.0899 92.6192 74.9113 91.1134 74.9797 88.7246L75.5136 70.032C75.541 69.0463 75.1851 68.1155 74.5006 67.4173C73.8846 66.7808 73.0701 66.3975 72.1803 66.3222C73.1317 66.1784 73.9736 65.7335 74.5964 65.097C76.068 69.0395 77.5533 73.0162 79.0318 76.9929C79.0318 77.1162 79.0318 77.2736 79.0318 77.3694L78.8743 90.6138C78.8606 91.6062 79.2439 92.5439 79.9489 93.2626C80.6745 93.995 81.6943 94.4194 82.7347 94.4194C82.7758 94.4194 82.8168 94.4194 82.8579 94.4194C84.7881 94.3578 86.7388 94.3304 88.669 94.3304C88.9975 94.3304 89.3329 94.3304 89.6615 94.3304H89.682C90.7292 94.3304 91.7491 93.906 92.4883 93.1668C93.2001 92.455 93.5903 91.5104 93.5903 90.5179L93.5424 77.2804C93.5424 77.1846 93.5424 77.0203 93.5424 76.8971C94.6101 74.0566 95.6847 71.2161 96.7525 68.3961L97.1906 90.9012C97.2316 92.9752 98.7853 94.5768 100.887 94.7137C103.186 94.8643 105.514 95.0491 107.807 95.2818C107.937 95.2955 108.067 95.3023 108.197 95.3023C109.217 95.3023 110.202 94.8916 110.893 94.173C111.585 93.4611 111.941 92.5097 111.907 91.4967L111.749 86.9313C112.351 87.9101 113.501 88.9094 115.062 88.9094C116.328 88.9094 117.471 88.225 118.197 87.034L118.238 86.9724L118.601 93.4337C118.71 95.3365 120.12 96.8971 122.03 97.2325C124.343 97.6363 126.677 98.0881 128.977 98.574C129.258 98.6357 129.538 98.663 129.812 98.663C130.825 98.663 131.749 98.2729 132.413 97.561C133.084 96.8424 133.405 95.8773 133.337 94.8437C132.488 82.982 131.64 71.1134 130.784 59.2517L130.75 59.2448ZM61.0441 81.9553C60.9825 81.9074 60.9209 81.8526 60.8524 81.7842C60.7498 81.6747 60.6471 81.5378 60.5513 81.3872C60.6129 81.3872 60.6676 81.3735 60.7292 81.3667C60.8524 81.3461 60.9688 81.3324 61.0783 81.3188L61.0509 81.9621L61.0441 81.9553ZM64.2405 67.0751C65.4725 66.418 66.9099 66.0689 68.491 66.0689C69.1823 66.0689 69.9079 66.1374 70.6402 66.2674C70.7977 66.3016 70.9551 66.3222 71.1194 66.3359C68.8059 66.5412 66.5061 66.7876 64.2405 67.0751Z" fill="#721119"/>
    <path d="M128.79 64.3488C128.674 62.6924 127.367 61.255 125.683 60.9196C123.287 60.4473 120.851 60.0093 118.448 59.6328C118.25 59.5986 118.044 59.5849 117.846 59.5849C116.573 59.5849 115.443 60.2557 114.827 61.3851L114.745 61.5425L114.684 61.7067C114.122 63.1783 113.561 64.6499 113 66.1284C112.206 64.3282 111.371 62.4323 110.522 60.5158C110.05 59.2564 108.879 58.3666 107.49 58.2228C105.094 57.9833 102.665 57.7848 100.269 57.641C100.187 57.641 100.111 57.6342 100.036 57.6342C99.6529 57.6342 99.2833 57.6958 98.9342 57.8053C98.5304 57.6273 98.0923 57.5247 97.6337 57.5041C95.3408 57.4015 93.0204 57.333 90.7275 57.3125H90.7001C89.1532 57.3125 87.7775 58.3187 87.3257 59.7834C87.2299 60.0709 87.1272 60.3584 87.0314 60.6458C86.9424 60.3857 86.8534 60.1256 86.7645 59.8655C86.3196 58.4145 84.9575 57.4083 83.4106 57.4083C83.3695 57.4083 83.3353 57.4083 83.2942 57.4083C81.0013 57.4836 78.6741 57.6 76.388 57.7642C75.7104 57.8122 75.067 58.0449 74.5263 58.4282H74.5126L74.3962 58.4008C73.2463 58.1612 72.0211 58.038 70.7617 58.038C69.4133 58.038 67.9896 58.1749 66.5386 58.4487C61.3093 59.4275 56.785 62.2749 53.4654 66.6759C50.4879 70.6253 48.633 75.6972 48.2497 80.9538C47.8048 87.0113 49.2764 92.2064 52.4044 95.5671C54.9096 98.2639 58.3935 99.6876 62.4866 99.6876C63.349 99.6876 64.2525 99.626 65.1628 99.5028C68.0376 99.1126 70.7617 98.2913 73.4927 96.984L73.6228 96.9224L73.746 96.8471C75.4982 95.7588 76.2716 94.3419 76.3332 92.0969L76.8329 74.5062C76.8603 73.5822 76.5181 72.7061 75.8815 72.0421C75.2997 71.4467 74.5331 71.0839 73.6981 71.0086C74.5879 70.8717 75.3818 70.4542 75.9705 69.8587C77.3599 73.5685 78.7562 77.3125 80.1457 81.0565C80.1457 81.1729 80.1457 81.3166 80.1457 81.4124L79.9951 93.8765C79.9814 94.8074 80.3442 95.6972 81.0081 96.3679C81.6926 97.0592 82.6508 97.4562 83.6296 97.4562C83.6638 97.4562 83.7049 97.4562 83.746 97.4562C85.5598 97.4015 87.401 97.3741 89.2148 97.3741C89.5228 97.3741 89.8377 97.3741 90.1457 97.3741H90.1662C91.1519 97.3741 92.1101 96.9771 92.8014 96.279C93.4722 95.6082 93.8418 94.7252 93.835 93.7875L93.787 81.3303C93.787 81.2413 93.787 81.0907 93.787 80.9675C94.7932 78.2913 95.7994 75.6219 96.8055 72.9662L97.2162 94.1503C97.2573 96.101 98.7152 97.6137 100.693 97.7369C102.856 97.8737 105.046 98.0586 107.209 98.2707C107.333 98.2844 107.456 98.2913 107.572 98.2913C108.53 98.2913 109.454 97.9011 110.111 97.2304C110.762 96.5596 111.097 95.6629 111.063 94.7115L110.912 90.4131C111.48 91.3371 112.562 92.2748 114.027 92.2748C115.224 92.2748 116.299 91.6315 116.977 90.5089L117.011 90.4473L117.353 96.5322C117.456 98.3255 118.784 99.7902 120.577 100.105C122.754 100.488 124.951 100.913 127.114 101.371C127.374 101.426 127.641 101.453 127.901 101.453C128.852 101.453 129.721 101.084 130.344 100.413C130.974 99.7355 131.282 98.832 131.213 97.8601C130.413 86.6965 129.612 75.526 128.811 64.3625L128.79 64.3488ZM63.1916 85.7245C63.13 85.6766 63.0752 85.6219 63.0136 85.5603C62.9109 85.4576 62.8151 85.3276 62.7261 85.1838C62.7809 85.1838 62.8356 85.1701 62.8904 85.1633C63.0068 85.1496 63.1163 85.1291 63.2189 85.1154L63.1916 85.7177V85.7245ZM66.2032 71.7204C67.3668 71.1044 68.7152 70.7759 70.2073 70.7759C70.8575 70.7759 71.5352 70.8375 72.2265 70.9675C72.3771 70.9949 72.5276 71.0223 72.6782 71.036C70.5016 71.2345 68.3387 71.4672 66.2032 71.7273V71.7204Z" fill="#721119"/>
    <path d="M99.1642 61.055C99.1573 60.5896 99.5132 60.2337 100.081 60.2679C102.456 60.4116 104.832 60.6033 107.2 60.8428C107.563 60.8771 107.932 61.1029 108.055 61.4862C109.5 64.7511 110.937 68.0229 112.374 71.2877C112.545 71.6505 112.833 72.0749 113.1 72.1091C113.422 72.1502 113.613 71.7874 113.757 71.4726C114.873 68.5294 115.995 65.593 117.118 62.6498C117.302 62.3076 117.61 62.1639 118.021 62.2323C120.41 62.6088 122.785 63.0331 125.153 63.4986C125.673 63.6012 126.118 64.0667 126.153 64.5389C126.953 75.7025 127.754 86.873 128.555 98.0365C128.596 98.6252 128.179 98.9058 127.624 98.7895C125.42 98.324 123.216 97.8928 120.999 97.5095C120.444 97.4137 119.979 96.9619 119.944 96.3733C119.65 91.1372 119.356 85.8942 119.061 80.658C118.986 80.2474 118.767 80.1584 118.63 80.5348C117.316 83.3959 116.009 86.2638 114.701 89.1317C114.092 90.131 113.298 89.4055 113.059 88.9127C111.471 85.6615 109.883 82.4103 108.288 79.1591C108.11 78.7415 107.843 78.7621 107.857 79.1591C108.042 84.3678 108.226 89.5766 108.404 94.7853C108.425 95.3671 107.939 95.6888 107.439 95.6409C105.242 95.4219 103.038 95.2371 100.834 95.1002C100.225 95.0591 99.8281 94.669 99.8144 94.0872C99.6022 83.0742 99.3832 72.068 99.171 61.055H99.1642Z" fill="#721119"/>
    <path d="M65.0783 55.6967C67.4465 55.2518 69.9517 55.1355 72.3473 55.6351C72.7306 55.7515 73.0523 56.1211 73.0386 56.5181C72.9838 58.5304 72.9222 60.5427 72.8675 62.555C72.7922 63.1711 71.9982 63.6981 71.1632 63.5201C63.0044 62.0212 57.1043 67.3737 56.6731 75.4298C56.4814 79.0164 57.4534 85.6693 62.5458 84.8822C63.2302 84.7795 63.7094 84.67 63.7573 83.6296C63.8394 81.7405 63.8805 80.8097 63.9626 78.9479C63.9968 78.1402 63.5383 78.1402 63.0249 78.2087C61.9435 78.3524 61.4027 78.4277 60.3213 78.5851C59.7463 78.6673 59.3083 78.3045 59.3357 77.7706C59.4452 75.6625 59.5547 73.5543 59.6642 71.4462C59.6916 70.9192 60.1639 70.4332 60.732 70.3511C64.3801 69.824 68.0557 69.3997 71.7244 69.078C72.2925 69.0301 72.7306 69.4065 72.7169 69.9267C72.5389 76.1553 72.361 82.3908 72.183 88.6194C72.1351 90.1799 71.7107 90.7823 70.7525 91.3778C68.1447 92.6235 65.5643 93.4243 62.7306 93.8076C51.6971 95.2997 47.1933 86.9219 47.9188 77.0725C48.6512 67.1204 54.7703 57.6269 65.0851 55.6899L65.0783 55.6967Z" fill="#FFE800"/>
    <path d="M90.7694 90.5135C90.7694 91.0748 90.2424 91.5197 89.6537 91.5197C87.354 91.506 85.0542 91.5402 82.7544 91.6087C82.1657 91.6292 81.6387 91.1912 81.6455 90.6299C81.7003 86.2151 81.755 81.8003 81.803 77.3855C81.803 76.9543 81.8166 76.3109 81.6455 76.0508C79.1952 69.4526 76.7379 62.8612 74.2602 56.2767C74.0548 55.7497 74.5134 55.0652 75.2321 55.0173C77.6414 54.8462 80.0507 54.723 82.4669 54.6477C82.9118 54.634 83.2951 54.9215 83.3978 55.3116C84.2739 57.892 85.1431 60.4656 86.0124 63.046C86.2314 63.5526 86.5189 63.3472 86.6284 63.0392C87.5182 60.4382 88.4149 57.8373 89.3115 55.2432C89.421 54.8462 89.8043 54.5519 90.2492 54.5587C92.6585 54.5792 95.0747 54.6477 97.484 54.7572C98.2027 54.7914 98.6544 55.4554 98.4422 55.9892C95.9097 62.6354 93.3909 69.2815 90.8858 75.9345C90.7147 76.2014 90.7147 76.8448 90.7215 77.2692C90.7352 81.684 90.7557 86.0987 90.7694 90.5067V90.5135Z" fill="#FFE800"/>
    <path d="M99.2657 55.7396C99.2589 55.2399 99.6353 54.8703 100.245 54.9045C102.77 55.0551 105.296 55.2605 107.815 55.5137C108.205 55.5548 108.595 55.7943 108.718 56.1982C110.258 59.6684 111.785 63.1386 113.311 66.6157C113.496 66.999 113.797 67.4507 114.077 67.485C114.413 67.526 114.625 67.1427 114.776 66.8073C115.967 63.6793 117.158 60.5582 118.349 57.4371C118.547 57.0743 118.869 56.9237 119.314 56.9922C121.846 57.3891 124.379 57.8409 126.897 58.3405C127.452 58.4501 127.924 58.9429 127.958 59.4425C128.807 71.3043 129.656 83.1728 130.511 95.0346C130.559 95.6643 130.114 95.9586 129.519 95.8354C127.178 95.3426 124.83 94.884 122.476 94.4733C121.887 94.3707 121.388 93.8915 121.353 93.2687C121.038 87.704 120.73 82.1325 120.416 76.5678C120.333 76.1297 120.101 76.0407 119.957 76.4377C118.561 79.4836 117.171 82.5294 115.782 85.5753C115.138 86.6362 114.29 85.8696 114.036 85.3426C112.353 81.8861 110.662 78.4295 108.965 74.9798C108.78 74.5349 108.492 74.5623 108.506 74.9798C108.698 80.5103 108.896 86.0476 109.088 91.578C109.108 92.2009 108.595 92.5363 108.061 92.4884C105.727 92.2557 103.386 92.064 101.038 91.9134C100.388 91.8724 99.9707 91.4548 99.957 90.832C99.7312 79.1345 99.4984 67.437 99.2726 55.7327L99.2657 55.7396Z" fill="#FFE800"/>
  </g>
  <defs>
    <linearGradient id="paint0_linear_1678_487" x1="167.539" y1="75.7777" x2="165.917" y2="107.578" gradientUnits="userSpaceOnUse">
      <stop stop-color="#BA2026"/>
      <stop offset="1" stop-color="#6E1316"/>
    </linearGradient>
    <linearGradient id="paint1_linear_1678_487" x1="167.879" y1="70.5656" x2="166.264" y2="102.365" gradientUnits="userSpaceOnUse">
      <stop stop-color="#EC1E24"/>
      <stop offset="1" stop-color="#A81F23"/>
    </linearGradient>
    <linearGradient id="paint2_linear_1678_487" x1="156.947" y1="70.543" x2="156.365" y2="110.187" gradientUnits="userSpaceOnUse">
      <stop stop-color="#D32029"/>
      <stop offset="1" stop-color="#8F1A1D"/>
    </linearGradient>
    <linearGradient id="paint3_linear_1678_487" x1="146.125" y1="64.9632" x2="147.932" y2="120.548" gradientUnits="userSpaceOnUse">
      <stop stop-color="#D32029"/>
      <stop offset="1" stop-color="#8F1A1D"/>
    </linearGradient>
    <linearGradient id="paint4_linear_1678_487" x1="145.824" y1="64.9703" x2="147.625" y2="120.562" gradientUnits="userSpaceOnUse">
      <stop stop-color="#EC1E24"/>
      <stop offset="1" stop-color="#A81F23"/>
    </linearGradient>
    <linearGradient id="paint5_linear_1678_487" x1="9.63488" y1="75.7777" x2="11.2502" y2="107.578" gradientUnits="userSpaceOnUse">
      <stop stop-color="#BA2026"/>
      <stop offset="1" stop-color="#6E1316"/>
    </linearGradient>
    <linearGradient id="paint6_linear_1678_487" x1="9.29714" y1="70.5656" x2="10.9124" y2="102.365" gradientUnits="userSpaceOnUse">
      <stop stop-color="#EC1E24"/>
      <stop offset="1" stop-color="#A81F23"/>
    </linearGradient>
    <linearGradient id="paint7_linear_1678_487" x1="20.2208" y1="70.543" x2="20.7957" y2="110.187" gradientUnits="userSpaceOnUse">
      <stop stop-color="#D32029"/>
      <stop offset="1" stop-color="#8F1A1D"/>
    </linearGradient>
    <linearGradient id="paint8_linear_1678_487" x1="31.0268" y1="64.9632" x2="29.2266" y2="120.548" gradientUnits="userSpaceOnUse">
      <stop stop-color="#D32029"/>
      <stop offset="1" stop-color="#8F1A1D"/>
    </linearGradient>
    <linearGradient id="paint9_linear_1678_487" x1="31.3488" y1="64.9703" x2="29.5418" y2="120.562" gradientUnits="userSpaceOnUse">
      <stop stop-color="#EC1E24"/>
      <stop offset="1" stop-color="#A81F23"/>
    </linearGradient>
    <clipPath id="clip0_1678_487">
      <rect width="177.009" height="112.574" fill="white"/>
    </clipPath>
  </defs>
</svg>
