<svg width="145" height="113" viewBox="0 0 145 113" fill="none" xmlns="http://www.w3.org/2000/svg">
<g clip-path="url(#clip0_2161_555)">
<path d="M20.0755 106.906C20.3539 106.857 20.6423 106.618 20.9604 106.171C21.2786 105.723 21.4377 104.898 21.4377 103.695V86.5924L12.4788 107.284L3.38072 86.6321V103.526C3.38072 104.759 3.57958 105.614 3.97731 106.111C4.37504 106.598 4.733 106.867 5.05119 106.916H0C0.338072 106.867 0.715916 106.618 1.13353 106.151C1.54121 105.683 1.75002 104.808 1.75002 103.536V86.4034C1.75002 85.3097 1.55115 84.554 1.17331 84.1463C0.785519 83.7386 0.397731 83.4901 0.00994328 83.3906H4.62363L13.0058 102.512L21.2488 83.3906H25.3852C25.0869 83.4403 24.7687 83.679 24.4306 84.1065C24.0926 84.544 23.9136 85.3395 23.9136 86.5029V103.844C23.9136 104.987 24.0826 105.773 24.4306 106.201C24.7687 106.638 25.0869 106.877 25.3852 106.916H20.0854L20.0755 106.906Z" fill="#FFBF02"/>
<path d="M36.3225 97.7729L34.135 103.212C33.7969 104.057 33.6179 104.753 33.6179 105.3C33.6179 106.056 33.956 106.593 34.6421 106.911H29.75C29.9787 106.911 30.3068 106.682 30.7443 106.225C31.1818 105.767 31.679 104.872 32.2458 103.52L41.1748 82.2812L50.0343 103.62C50.5315 104.853 51.0187 105.698 51.486 106.155C51.9533 106.612 52.3213 106.861 52.5997 106.911H46.922C47.4888 106.632 47.7772 106.215 47.7772 105.648C47.7772 105.171 47.5982 104.485 47.2303 103.6L44.834 97.7828H36.3225V97.7729ZM44.2871 96.3709L40.5583 87.2429L36.8992 96.3709H44.2871Z" fill="#FFBF02"/>
<path d="M60.1613 105.846C60.1613 107.169 59.8729 108.362 59.2863 109.436C58.7096 110.51 57.934 111.335 56.9595 111.932C55.9951 112.528 54.9609 112.817 53.8672 112.817C55.0504 112.339 55.9851 111.464 56.6712 110.202C57.3573 108.939 57.6954 107.437 57.6954 105.707V86.5167C57.6954 85.6318 57.576 84.9457 57.3573 84.4784C57.1286 84.011 56.88 83.6929 56.6016 83.5338C56.3232 83.3747 56.1939 83.315 56.1939 83.3647H61.6329C61.6329 83.3647 61.4937 83.3747 61.2252 83.5338C60.9468 83.6929 60.7082 84.011 60.4894 84.4784C60.2707 84.9457 60.1613 85.6219 60.1613 86.5167V105.837V105.846Z" fill="#FFBF02"/>
<path d="M67.5625 106.907C67.5625 106.977 67.7017 106.927 67.9702 106.758C68.2386 106.589 68.4872 106.241 68.706 105.734C68.9247 105.217 69.0341 104.471 69.0341 103.497V86.7027C69.0341 85.768 68.9247 85.0521 68.706 84.5649C68.4872 84.0777 68.2486 83.7396 67.9702 83.5606C67.6918 83.3816 67.5625 83.322 67.5625 83.3916H79.9419V86.8121C79.5342 85.4399 78.3012 84.7638 76.2529 84.7638H71.5V94.4783H77.3865C77.8439 94.4783 78.2316 94.4087 78.5498 94.2596C78.868 94.1104 79.1067 93.9613 79.2657 93.8022C79.4248 93.6431 79.5143 93.5437 79.5442 93.494V96.815C79.5442 96.815 79.4248 96.6659 79.2657 96.5068C79.1067 96.3477 78.868 96.1985 78.5697 96.0593C78.2615 95.9201 77.8836 95.8505 77.4262 95.8505H71.51V105.565H76.8495C77.8737 105.565 78.7586 105.356 79.5044 104.929C80.2501 104.511 80.7771 103.964 81.0953 103.308L80.4788 106.937H67.5824L67.5625 106.907Z" fill="#FFBF02"/>
<path d="M89.8026 106.817C88.7088 106.489 87.7244 106.021 86.8594 105.435V101.298C87.456 102.829 88.3608 103.983 89.5739 104.768C90.7969 105.554 92.0597 105.952 93.3921 105.952C94.7245 105.952 95.8183 105.514 96.7132 104.639C97.5981 103.764 98.0456 102.67 98.0456 101.378C98.0456 100.513 97.8666 99.7669 97.5186 99.1504C97.1606 98.5339 96.6038 97.9572 95.8282 97.4203C95.0526 96.8833 93.9589 96.2867 92.5469 95.6205C90.5583 94.7057 89.1165 93.7611 88.2216 92.7668C87.3168 91.7725 86.8693 90.5693 86.8693 89.1574C86.8693 87.9443 87.1577 86.8704 87.7443 85.9258C88.321 84.9812 89.1165 84.2454 90.1009 83.7383C91.0952 83.2212 92.179 82.9727 93.3623 82.9727C94.3864 82.9727 95.3907 83.1119 96.3751 83.4002C97.3595 83.6886 98.2643 84.0863 99.1095 84.6133V88.3023C98.5626 87.0494 97.7373 86.075 96.6336 85.3789C95.5299 84.6829 94.4063 84.3349 93.2629 84.3349C91.9603 84.3349 90.9162 84.7525 90.1208 85.5977C89.3253 86.4429 88.9276 87.4471 88.9276 88.6105C88.9276 89.4557 89.1662 90.1815 89.6435 90.7781C90.1208 91.3847 90.7074 91.8918 91.4035 92.2995C92.0995 92.7071 93.0739 93.2142 94.3268 93.8009C95.5995 94.4174 96.6535 94.9841 97.4689 95.5111C98.2941 96.0381 98.9703 96.7242 99.5172 97.5595C100.064 98.4046 100.342 99.4288 100.342 100.642C100.342 102.014 100.014 103.197 99.368 104.202C98.7217 105.206 97.8467 105.971 96.7728 106.508C95.689 107.045 94.5058 107.314 93.233 107.314C92.0498 107.314 90.9063 107.145 89.8125 106.817H89.8026Z" fill="#FFBF02"/>
<path d="M105.807 85.32C105.141 85.7078 104.663 86.195 104.375 86.7916L104.852 83.3711H121.06L121.537 86.7916C121.239 86.195 120.762 85.7078 120.105 85.32C119.439 84.9322 118.614 84.7433 117.61 84.7433H114.189V103.725C114.189 104.64 114.298 105.336 114.527 105.813C114.756 106.29 115.004 106.609 115.283 106.768C115.551 106.927 115.69 106.976 115.69 106.907H110.251C110.251 106.976 110.391 106.927 110.659 106.768C110.928 106.609 111.176 106.29 111.395 105.823C111.614 105.356 111.723 104.66 111.723 103.715V84.7333H108.303C107.298 84.7333 106.463 84.9322 105.807 85.31V85.32Z" fill="#FFBF02"/>
<path d="M144.904 83.3711C144.676 83.4208 144.308 83.6694 143.811 84.1268C143.313 84.5842 142.707 85.4294 142.001 86.6623L136.085 96.8244V103.735C136.085 104.898 136.244 105.704 136.562 106.161C136.88 106.618 137.178 106.867 137.447 106.917H132.247C132.515 106.867 132.813 106.628 133.131 106.181C133.45 105.734 133.609 104.918 133.609 103.735V96.7945L127.762 86.6325C127.076 85.4492 126.489 84.6339 125.982 84.1864C125.485 83.739 125.077 83.4705 124.789 83.381H130.536C129.97 83.5004 129.681 83.8583 129.681 84.4748C129.681 84.6836 129.751 84.9222 129.89 85.2106C130.029 85.499 130.248 85.8967 130.536 86.4237L135.498 95.1439L140.46 86.5629C140.847 85.9265 141.036 85.2703 141.036 84.614C141.036 84.1765 140.907 83.8782 140.639 83.7092C140.38 83.5401 140.122 83.4308 139.873 83.381H144.904V83.3711Z" fill="#FFBF02"/>
<path d="M96.7491 48.717L94.0047 46.9173V6.28906H83.783L72.4576 24.525L61.1223 6.28906H50.9006V46.9173L48.1562 48.717H50.9006H60.1976V21.4426L72.2091 39.6786H72.4576L84.5884 21.2636V48.717H94.0047H96.7491Z" fill="#9E0737"/>
<path d="M77.2567 46.9173L77.2467 32.4001L92.4301 9.48086L97.2924 6.28906L94.5481 6.29901V6.28906H83.7695L72.464 24.525L61.1187 6.29901H52.9653H50.5988L47.4766 6.28906L52.309 9.47091L67.4128 32.4001L67.4228 46.9173L64.6784 48.717H67.4228H77.2567H79.9911L77.2567 46.9173Z" fill="#F20A55"/>
<path d="M74.1563 4.28555C72.7046 2.56537 72.4958 0.6662 72.456 0C72.4162 0.676143 72.2074 2.57531 70.7557 4.28555C69.7316 5.48869 68.5582 6.0654 67.9219 6.31398C68.5582 6.57251 69.7316 7.13928 70.7557 8.34241C72.2074 10.0626 72.4162 11.9618 72.456 12.628C72.4958 11.9518 72.7046 10.0527 74.1563 8.34241C75.1805 7.13928 76.3538 6.56257 76.9902 6.31398C76.3538 6.05546 75.1805 5.48869 74.1563 4.28555Z" fill="#FFBF02"/>
<path d="M49.4191 61.0664C49.2899 61.0962 49.091 61.2354 48.8126 61.484C48.5342 61.7426 48.1961 62.2099 47.7984 62.896L44.4972 68.5636V72.4117C44.4972 73.058 44.5867 73.5154 44.7657 73.764C44.9447 74.0225 45.1137 74.1617 45.2629 74.1816H42.3594C42.5086 74.1518 42.6776 74.0225 42.8566 73.7739C43.0356 73.5253 43.1251 73.068 43.1251 72.4117V68.5438L39.8637 62.8761C39.4858 62.2198 39.1477 61.7624 38.8693 61.5139C38.5909 61.2653 38.3622 61.1161 38.2031 61.0664H41.4049C41.0867 61.1261 40.9276 61.3349 40.9276 61.6729C40.9276 61.7923 40.9674 61.9215 41.0469 62.0806C41.1265 62.2397 41.2458 62.4684 41.4049 62.7568L44.1691 67.619L46.9333 62.8363C47.1521 62.4784 47.2615 62.1204 47.2615 61.7525C47.2615 61.5139 47.1919 61.3448 47.0427 61.2454C46.8936 61.146 46.7543 61.0863 46.6151 61.0664H49.4191Z" fill="#FFBF02"/>
<path d="M56.4254 64.1787C57.0021 63.1247 57.8175 62.2994 58.8715 61.7227C59.9155 61.136 61.1286 60.8477 62.5008 60.8477C63.6443 60.8477 64.7181 61.0962 65.7125 61.6033C66.7068 62.1105 67.5122 62.8562 68.1187 63.8605C68.7253 64.8647 69.0236 66.0778 69.0236 67.4798C69.0236 68.8818 68.7352 70.0253 68.1585 71.0793C67.5818 72.1333 66.7664 72.9586 65.7224 73.5353C64.6784 74.1219 63.4653 74.4103 62.0931 74.4103C60.9496 74.4103 59.8758 74.1617 58.8814 73.6546C57.8871 73.1574 57.0817 72.4017 56.4752 71.3975C55.8686 70.3932 55.5703 69.1901 55.5703 67.7781C55.5703 66.3662 55.8587 65.2326 56.4354 64.1687L56.4254 64.1787ZM66.7863 64.6261C66.3091 63.6914 65.6528 62.9656 64.8176 62.4286C63.9823 61.9016 63.0477 61.6332 62.0036 61.6332C61.0491 61.6332 60.2039 61.8718 59.4581 62.359C58.7124 62.8463 58.1357 63.5224 57.7081 64.4073C57.2905 65.2923 57.0817 66.3165 57.0817 67.4898C57.0817 68.6631 57.3203 69.6972 57.7976 70.6219C58.2749 71.5466 58.9311 72.2924 59.7664 72.8194C60.6016 73.3464 61.5363 73.6148 62.5803 73.6148C63.5349 73.6148 64.3801 73.3762 65.1258 72.889C65.8716 72.4017 66.4483 71.7256 66.8758 70.8407C67.2934 69.9557 67.5023 68.9315 67.5023 67.7582C67.5023 66.5849 67.2636 65.5508 66.7863 64.6261Z" fill="#FFBF02"/>
<path d="M87.4568 69.6278C87.4568 70.632 87.2679 71.4971 86.8801 72.213C86.5022 72.9289 85.9653 73.4758 85.2693 73.8537C84.5732 74.2315 83.7678 74.4204 82.853 74.4204C81.3417 74.4204 80.1684 74.0028 79.3431 73.1576C78.5178 72.3224 78.1002 71.159 78.1002 69.6676V62.8365C78.1002 62.3294 78.0405 61.9416 77.9212 61.6831C77.8019 61.4246 77.6626 61.2456 77.5234 61.1561C77.3743 61.0666 77.3047 61.0368 77.3047 61.0567H80.2777C80.2777 61.0567 80.2081 61.0567 80.059 61.1561C79.9098 61.2456 79.7806 61.4146 79.6612 61.6732C79.5419 61.9317 79.4823 62.2996 79.4823 62.7769V69.6576C79.4823 70.8906 79.7806 71.8451 80.3672 72.5213C80.9539 73.1974 81.8289 73.5355 82.9724 73.5355C84.0264 73.5355 84.8616 73.2173 85.4681 72.571C86.0747 71.9247 86.3829 70.9801 86.3829 69.7173V62.8365C86.3829 62.3294 86.3232 61.9416 86.194 61.6831C86.0647 61.4246 85.9255 61.2456 85.7764 61.1561C85.6272 61.0666 85.5477 61.0368 85.5477 61.0567H88.292C88.292 61.0567 88.2125 61.0567 88.0633 61.1561C87.9142 61.2456 87.775 61.4246 87.6457 61.6831C87.5164 61.9416 87.4568 62.3294 87.4568 62.8365V69.6278Z" fill="#FFBF02"/>
<path d="M101.953 67.1864C102.381 66.918 102.709 66.56 102.938 66.1225C103.166 65.685 103.276 65.2276 103.276 64.7404C103.276 64.2532 103.166 63.7759 102.957 63.3384C102.749 62.9009 102.43 62.5429 101.993 62.2645C101.565 61.9861 101.028 61.8469 100.412 61.8469H98.7912V72.4464C98.7912 72.9535 98.8509 73.3413 98.9801 73.5998C99.1094 73.8584 99.2486 74.0274 99.3978 74.1169C99.5469 74.1964 99.6265 74.2263 99.6265 74.2064H96.5938C96.5938 74.2064 96.6733 74.2064 96.8224 74.1069C96.9716 74.0175 97.1108 73.8484 97.2301 73.5899C97.3494 73.3314 97.4091 72.9535 97.4091 72.4464V62.9108C97.4091 62.3938 97.3494 61.996 97.2301 61.7176C97.1108 61.4492 96.9716 61.2602 96.8224 61.1608C96.6733 61.0614 96.5938 61.0415 96.5938 61.0713H100.372C101.367 61.0713 102.182 61.2304 102.818 61.5585C103.455 61.8867 103.922 62.3043 104.21 62.8213C104.499 63.3384 104.638 63.8952 104.638 64.5117C104.638 65.0188 104.519 65.516 104.28 66.0131C104.041 66.5003 103.693 66.9279 103.236 67.2859C102.788 67.6438 102.261 67.9023 101.665 68.0415L101.357 68.1012L104.717 72.3768C105.165 72.874 105.533 73.2518 105.821 73.5203C106.109 73.7888 106.328 73.9677 106.457 74.0572C106.587 74.1467 106.666 74.1964 106.696 74.2064H104.469L99.2784 67.604H100.422C101.009 67.604 101.516 67.4648 101.943 67.1964L101.953 67.1864Z" fill="#FFBF02"/>
</g>
<defs>
<clipPath id="clip0_2161_555">
<rect width="144.903" height="112.826" fill="white"/>
</clipPath>
</defs>
</svg>
