<svg width="244" height="92" viewBox="0 0 244 92" fill="none" xmlns="http://www.w3.org/2000/svg">
  <g clip-path="url(#clip0_1471_262)">
    <path d="M114.318 28.8125C108.173 28.8125 103.176 30.4779 99.3217 33.797V30.0205H78.2812V89.1542H99.3217V56.9876C99.3217 53.7662 100.088 51.3268 101.62 49.6731C103.153 48.0194 105.287 47.1945 108.028 47.1945C109.478 47.1945 110.788 47.4174 111.957 47.8591C113.126 48.3009 114.033 48.8873 114.678 49.6105L126.891 33.2849C125.44 31.7524 123.685 30.6226 121.629 29.8993C119.572 29.1722 117.133 28.8125 114.314 28.8125H114.318Z" fill="black"/>
    <path d="M170.858 72.7717C169.97 73.1744 169.001 73.3777 167.957 73.3777C166.507 73.3777 165.275 72.8929 164.271 71.9273C163.262 70.9578 162.758 69.6286 162.758 67.9358V47.1964H181.14V30.0224H162.758V7.10938H141.717V30.0224H129.141V47.1964H141.717V67.6973C141.717 72.6154 142.702 76.9079 144.681 80.5749C146.655 84.2458 149.516 87.0645 153.266 89.0388C157.015 91.013 161.467 92.0021 166.628 92.0021C171.386 92.0021 175.252 91.2945 178.239 89.8871C181.222 88.4758 183.88 86.5602 186.218 84.1442L173.157 71.0829C172.512 71.81 171.745 72.373 170.858 72.7757V72.7717Z" fill="black"/>
    <path d="M243.415 30.0234H191.416V47.1935H213.621L189.359 76.5805V89.1571H242.691V71.9831H219.153L243.415 42.6V30.0234Z" fill="black"/>
    <path d="M5.30505 79.5873C5.31287 79.6108 5.33632 79.6264 5.35196 79.6499C7.59205 82.5585 10.4381 84.9237 13.8979 86.7454C18.2843 89.052 23.3079 90.2131 28.9726 90.2131C34.6373 90.2131 39.8798 89.0793 44.2271 86.808C48.5743 84.5288 51.9482 81.3426 54.3407 77.2378C55.7285 74.8452 56.7176 72.2337 57.2962 69.3955C57.7223 67.3587 57.9295 65.2046 57.9295 62.9333V47.2018H71.6476V30.0278H57.9295V29.977C57.9295 25.1137 56.8857 20.6648 54.8176 16.9977C52.7418 13.3307 49.8449 10.4612 46.1427 8.38142C42.4288 6.30552 38.144 5.26953 33.2807 5.26953C28.9726 5.26953 25.243 6.01232 22.0881 7.48616C18.9371 8.96001 16.2436 10.9382 14.0152 13.405L26.8224 26.2044C27.616 25.3326 28.437 24.7149 29.2697 24.3513C30.1102 23.9956 30.9664 23.8118 31.8499 23.8118C33.441 23.8118 34.7233 24.2536 35.6772 25.1332C36.635 26.0128 37.112 27.6274 37.112 29.6212V30.0278H17.2209C7.71715 30.02 0.015625 37.7215 0.015625 47.2214V62.9254C0.015625 68.3517 1.22754 73.0977 3.65919 77.1674C4.15959 78.0079 4.71082 78.8211 5.30505 79.5834V79.5873ZM20.8332 62.5736V47.1979H37.1041V62.816C37.1041 65.5877 36.4708 67.7809 35.1964 69.3916C35.1182 69.4932 35.0361 69.591 34.9501 69.6926C33.5153 71.3307 31.5137 72.1477 28.9687 72.1477C26.4237 72.1477 24.422 71.3307 22.9873 69.6926C22.6003 69.2508 22.268 68.7661 21.9904 68.2344C21.2202 66.784 20.8332 64.9779 20.8332 62.816V62.5775V62.5736Z" fill="#FF0000"/>
    <path d="M77.7999 15.0459C77.1744 14.6354 76.5254 14.3109 75.853 14.0724C75.1806 13.8379 74.5316 13.6424 73.91 13.4899C73.2845 13.3375 72.7763 13.1654 72.3893 12.9778C72.0022 12.7901 71.8068 12.5399 71.8068 12.235C71.8068 11.977 71.9241 11.7698 72.1586 11.6173C72.3932 11.4649 72.7841 11.3867 73.3275 11.3867C73.8709 11.3867 74.516 11.5118 75.2001 11.7581C75.8843 12.0044 76.5098 12.4461 77.0727 13.0833L80.4661 9.6548C79.6412 8.64226 78.5583 7.87993 77.2135 7.37562C75.8686 6.86739 74.4534 6.61328 72.9718 6.61328C71.4901 6.61328 70.2352 6.85566 69.1523 7.33652C68.0655 7.82129 67.225 8.48198 66.6229 9.31859C66.0209 10.1552 65.7198 11.1286 65.7198 12.235C65.7198 13.3414 65.9153 14.1663 66.3023 14.8504C66.6894 15.5345 67.2054 16.0662 67.8387 16.4415C68.476 16.8168 69.1367 17.1179 69.8208 17.3446C70.5049 17.5674 71.1578 17.759 71.7833 17.9115C72.4088 18.0639 72.9131 18.2438 73.3041 18.4431C73.695 18.6425 73.8866 18.9318 73.8866 19.311C73.8866 19.569 73.7497 19.7723 73.48 19.9131C73.2103 20.0538 72.8154 20.1242 72.2955 20.1242C71.4002 20.1242 70.5558 19.96 69.7661 19.6277C68.9764 19.2993 68.3 18.838 67.7332 18.2477L64.375 21.6762C64.9888 22.3134 65.7355 22.8725 66.6229 23.3573C67.5064 23.842 68.4603 24.2251 69.4846 24.5066C70.5089 24.7881 71.5527 24.9288 72.616 24.9288C74.8327 24.9288 76.5997 24.4284 77.9211 23.4276C79.2425 22.4268 79.9032 21.0663 79.9032 19.3423C79.9032 18.2594 79.7077 17.3759 79.3207 16.6917C78.9336 16.0076 78.4254 15.4603 77.7999 15.0459Z" fill="black"/>
    <path d="M85.636 23.619C86.8831 24.397 88.3101 24.788 89.9129 24.788C90.9958 24.788 91.9849 24.5886 92.8841 24.1859C93.4431 23.9357 93.9357 23.6191 94.3696 23.2555V24.4322H100.414V7.14091H94.3696V8.29418C93.9357 7.9267 93.4431 7.61395 92.8841 7.37156C91.9888 6.98062 90.9997 6.78906 89.9129 6.78906C88.3101 6.78906 86.8831 7.17218 85.636 7.93843C84.385 8.70467 83.4077 9.77194 82.7001 11.1402C81.9925 12.5085 81.6406 14.0645 81.6406 15.8081C81.6406 17.5517 81.9925 19.0685 82.7001 20.4212C83.4077 21.7777 84.385 22.845 85.636 23.623V23.619ZM88.3062 13.9824C88.5994 13.4507 89.002 13.0324 89.5063 12.7274C90.0146 12.4225 90.5971 12.2661 91.2578 12.2661C91.9185 12.2661 92.501 12.4186 93.0092 12.7274C93.5174 13.0324 93.9122 13.4468 94.1937 13.9667C94.4752 14.4867 94.6198 15.0848 94.6198 15.769C94.6198 16.805 94.3071 17.6533 93.6816 18.314C93.0561 18.9747 92.2351 19.3031 91.2226 19.3031C90.5853 19.3031 90.0068 19.1506 89.4907 18.8418C88.9708 18.5368 88.572 18.1185 88.2866 17.5868C88.0051 17.0552 87.8605 16.4492 87.8605 15.7651C87.8605 15.0809 88.009 14.5101 88.3023 13.9785L88.3062 13.9824Z" fill="black"/>
    <path d="M106.39 24.4338H112.543V12.2677H116.363V7.14248H112.543V0H106.39V7.14248H102.57V12.2677H106.39V24.4338Z" fill="black"/>
    <path d="M132.583 19.4122H125.702L132.794 10.8233V7.14453H117.59V12.1642H124.084L116.992 20.7571V24.4358H132.583V19.4122Z" fill="black"/>
  </g>
  <defs>
    <clipPath id="clip0_1471_262">
      <rect width="243.388" height="92" fill="white"/>
    </clipPath>
  </defs>
</svg>
