<svg width="48" height="48" viewBox="0 0 48 48" fill="none" xmlns="http://www.w3.org/2000/svg">
<rect x="0.5" y="0.5" width="47" height="47" rx="8.5" fill="white" stroke="black"/>
<path d="M12.2575 36.5721C12.2607 36.5816 12.2701 36.5879 12.2765 36.5973C13.1796 37.77 14.327 38.7236 15.7219 39.4581C17.4904 40.388 19.5157 40.8561 21.7996 40.8561C24.0834 40.8561 26.1971 40.399 27.9498 39.4833C29.7024 38.5644 31.0627 37.2798 32.0273 35.6248C32.5868 34.6602 32.9856 33.6074 33.2188 32.4631C33.3906 31.6419 33.4742 30.7734 33.4742 29.8577V23.5152H39.0049V16.5912H33.4742V16.5707C33.4742 14.6099 33.0533 12.8163 32.2196 11.3378C31.3826 9.85941 30.2147 8.70251 28.7221 7.864C27.2247 7.02706 25.4973 6.60938 23.5365 6.60938C21.7996 6.60938 20.2959 6.90884 19.024 7.50306C17.7536 8.09727 16.6676 8.8948 15.7692 9.88936L20.9327 15.0497C21.2527 14.6982 21.5837 14.4492 21.9194 14.3026C22.2583 14.1592 22.6034 14.0851 22.9596 14.0851C23.6011 14.0851 24.1181 14.2632 24.5027 14.6178C24.8889 14.9725 25.0811 15.6234 25.0811 16.4273V16.5912H17.0617C13.23 16.588 10.125 19.6931 10.125 23.5231V29.8545C10.125 32.0422 10.6136 33.9557 11.594 35.5965C11.7957 35.9353 12.018 36.2632 12.2575 36.5705V36.5721ZM18.518 29.7127V23.5137H25.078V29.8104C25.078 30.9279 24.8227 31.8121 24.3088 32.4615C24.2773 32.5025 24.2442 32.5419 24.2095 32.5829C23.6311 33.2433 22.8241 33.5727 21.798 33.5727C20.7719 33.5727 19.9649 33.2433 19.3865 32.5829C19.2305 32.4048 19.0965 32.2093 18.9846 31.995C18.6741 31.4102 18.518 30.682 18.518 29.8104V29.7143V29.7127Z" fill="#FF1A1A"/>
</svg>
