<svg width="157" height="108" viewBox="0 0 157 108" fill="none" xmlns="http://www.w3.org/2000/svg">
  <g clip-path="url(#clip0_1709_234)">
    <path d="M69.9347 18.1551H64.1657C63.4766 18.1551 62.92 17.5985 62.92 16.9094V11.1404C62.92 10.4513 62.3634 9.89475 61.6744 9.89475H12.2359C11.5468 9.89475 10.9902 9.33817 10.9902 8.64907V4.52332H6.7408C6.0517 4.52332 5.49512 3.96674 5.49512 3.27764V0H0V4.53215V9.90359V71.5868C0 72.2759 0.55658 72.8325 1.24568 72.8325H7.01467C7.70377 72.8325 8.26035 73.389 8.26035 74.0781V79.8471C8.26035 80.5362 8.81693 81.0928 9.50603 81.0928H61.7009C62.39 81.0928 62.9465 80.5362 62.9465 79.8471V74.0781C62.9465 73.389 63.5031 72.8325 64.1922 72.8325H69.9612C70.6503 72.8325 71.2069 72.2759 71.2069 71.5868V19.4008C71.2069 18.7117 70.6503 18.1551 69.9612 18.1551H69.9347Z" fill="black"/>
    <path d="M86.7233 72.844H92.4923C93.1814 72.844 93.7379 73.4005 93.7379 74.0896V79.8586C93.7379 80.5477 94.2945 81.1043 94.9836 81.1043H144.44C145.129 81.1043 145.685 81.6609 145.685 82.35V86.4757H149.935C150.624 86.4757 151.181 87.0323 151.181 87.7214V91.0167H156.676V86.4846V81.1131V19.4123C156.676 18.7232 156.119 18.1666 155.43 18.1666H149.661C148.972 18.1666 148.415 17.61 148.415 16.9209V11.1519C148.415 10.4628 147.859 9.90625 147.17 9.90625H94.9748C94.2857 9.90625 93.7291 10.4628 93.7291 11.1519V16.9209C93.7291 17.61 93.1725 18.1666 92.4834 18.1666H86.7144C86.0253 18.1666 85.4688 18.7232 85.4688 19.4123V71.6071C85.4688 72.2962 86.0253 72.8528 86.7144 72.8528L86.7233 72.844Z" fill="black"/>
    <path d="M25.5047 63.8122C25.5047 62.0364 25.5047 60.3402 25.5047 58.6439C25.5047 57.6986 25.2132 57.4071 24.2855 57.4071C22.1652 57.4071 20.0538 57.4071 17.9335 57.4071C17.7303 57.4071 17.5271 57.4071 17.262 57.4071C17.262 57.1509 17.262 56.9477 17.262 56.7356C17.262 54.2973 17.262 51.8501 17.262 49.4118C17.262 48.5548 16.944 48.2456 16.0782 48.2456C13.7547 48.2456 11.4224 48.2456 9.05469 48.2456V29.0127C9.8233 29.0127 10.6007 29.0127 11.3782 29.0127C12.0054 29.0127 12.6415 29.0127 13.2688 29.0127C14.2141 29.0127 14.5145 28.7211 14.5145 27.7935C14.5145 26.5743 14.5145 25.3551 14.5145 24.1271C14.5145 23.9416 14.5145 23.7561 14.5145 23.5175C15.9368 23.5175 17.3062 23.5175 18.6756 23.5175C19.7622 23.5175 20.0096 23.2613 20.0096 22.1659C20.0096 21.1145 20.0096 20.0721 20.0096 18.9854H25.5047C25.5047 20.0632 25.5047 21.1499 25.5047 22.2277C25.5047 23.2437 25.7786 23.5264 26.7857 23.5264C28.1728 23.5264 29.5598 23.5264 30.9998 23.5264C30.9998 24.3745 30.9998 25.1785 30.9998 25.9736C30.9998 26.8835 31.3002 27.1927 32.1837 27.1927C34.4542 27.1927 36.7247 27.1927 38.9952 27.1927C39.8433 27.1927 40.1525 26.8747 40.1613 26.0089C40.1613 25.2138 40.1613 24.4098 40.1613 23.5264C40.6384 23.5264 41.089 23.5264 41.5395 23.5264C42.5732 23.5264 43.598 23.5264 44.6316 23.5264C45.3031 23.5264 45.6476 23.173 45.6564 22.4927C45.6653 21.3354 45.6564 20.1692 45.6564 18.9766H51.1516V20.2487C51.1516 20.8583 51.1516 21.4679 51.1516 22.0775C51.1516 23.2967 51.3724 23.5175 52.5739 23.5264C53.908 23.5264 55.242 23.5264 56.6555 23.5264C56.6555 24.3303 56.6555 25.1078 56.6555 25.8764C56.6555 26.5655 56.6555 27.2458 56.6555 27.9348C56.6644 28.677 57.0001 29.0127 57.751 29.0127C59.1999 29.0127 60.6399 29.0127 62.1241 29.0127V48.2456H61.5411C59.4384 48.2456 57.3446 48.2456 55.242 48.2456C54.1642 48.2456 53.908 48.5018 53.908 49.6061C53.908 52.177 53.908 54.7567 53.908 57.4071H53.2719C51.1339 57.4071 48.9959 57.4071 46.8579 57.4071C45.9568 57.4071 45.6564 57.7075 45.6564 58.6086C45.6564 60.3225 45.6564 62.0364 45.6564 63.821H45.0027C43.1916 63.821 41.3805 63.821 39.5694 63.821C38.6241 63.821 38.3326 64.1125 38.3326 65.0402C38.3326 67.1605 38.3326 69.2719 38.3326 71.3923V72.0372H32.8374C32.8374 71.834 32.8374 71.6308 32.8374 71.4364C32.8374 69.2985 32.8374 67.1605 32.8374 65.0225C32.8374 64.1214 32.5371 63.821 31.6359 63.821C29.6216 63.821 27.5985 63.821 25.5135 63.821L25.5047 63.8122Z" fill="#FFCC00"/>
    <path d="M110.997 63.8122C110.997 62.0364 110.997 60.3402 110.997 58.6439C110.997 57.6986 110.705 57.4071 109.778 57.4071C107.657 57.4071 105.546 57.4071 103.426 57.4071C103.222 57.4071 103.019 57.4071 102.754 57.4071C102.754 57.1509 102.754 56.9477 102.754 56.7356C102.754 54.2973 102.754 51.8501 102.754 49.4118C102.754 48.5548 102.436 48.2456 101.57 48.2456C99.2469 48.2456 96.9145 48.2456 94.5469 48.2456V29.0127C95.3155 29.0127 96.0929 29.0127 96.8704 29.0127C97.4976 29.0127 98.1337 29.0127 98.761 29.0127C99.7063 29.0127 100.007 28.7211 100.007 27.7935C100.007 26.5743 100.007 25.3551 100.007 24.1271C100.007 23.9416 100.007 23.7561 100.007 23.5175C101.429 23.5175 102.798 23.5175 104.168 23.5175C105.254 23.5175 105.502 23.2613 105.502 22.1659C105.502 21.1145 105.502 20.0721 105.502 18.9854H110.997C110.997 20.0632 110.997 21.1499 110.997 22.2277C110.997 23.2437 111.271 23.5264 112.278 23.5264C113.665 23.5264 115.052 23.5264 116.492 23.5264C116.492 24.3745 116.492 25.1785 116.492 25.9736C116.492 26.8835 116.792 27.1927 117.676 27.1927C119.946 27.1927 122.217 27.1927 124.487 27.1927C125.335 27.1927 125.645 26.8747 125.654 26.0089C125.654 25.2138 125.654 24.4098 125.654 23.5264C126.131 23.5264 126.581 23.5264 127.032 23.5264C128.065 23.5264 129.09 23.5264 130.124 23.5264C130.795 23.5264 131.14 23.173 131.149 22.4927C131.157 21.3354 131.149 20.1692 131.149 18.9766H136.644V20.2487C136.644 20.8583 136.644 21.4679 136.644 22.0775C136.644 23.2967 136.865 23.5175 138.066 23.5264C139.4 23.5264 140.734 23.5264 142.148 23.5264C142.148 24.3303 142.148 25.1078 142.148 25.8764C142.148 26.5655 142.148 27.2458 142.148 27.9348C142.157 28.677 142.492 29.0127 143.243 29.0127C144.692 29.0127 146.132 29.0127 147.616 29.0127V48.2456H147.033C144.931 48.2456 142.837 48.2456 140.734 48.2456C139.656 48.2456 139.4 48.5018 139.4 49.6061C139.4 52.177 139.4 54.7567 139.4 57.4071H138.764C136.626 57.4071 134.488 57.4071 132.35 57.4071C131.449 57.4071 131.149 57.7075 131.149 58.6086C131.149 60.3225 131.149 62.0364 131.149 63.821H130.495C128.684 63.821 126.873 63.821 125.062 63.821C124.116 63.821 123.825 64.1125 123.825 65.0402C123.825 67.1605 123.825 69.2719 123.825 71.3923V72.0372H118.33C118.33 71.834 118.33 71.6308 118.33 71.4364C118.33 69.2985 118.33 67.1605 118.33 65.0225C118.33 64.1214 118.029 63.821 117.128 63.821C115.114 63.821 113.091 63.821 111.006 63.821L110.997 63.8122Z" fill="#FFCC00"/>
    <path d="M67.8078 99.4714H62.8516V91.0078H93.702V99.4272H87.3852C86.6961 99.4272 86.1396 99.9838 86.1396 100.673V106.698C86.1396 107.387 85.583 107.944 84.8939 107.944H70.2815C69.5924 107.944 69.0358 107.387 69.0358 106.698V100.726C69.0358 100.037 68.4792 99.4802 67.7901 99.4802L67.8078 99.4714Z" fill="black"/>
  </g>
  <defs>
    <clipPath id="clip0_1709_234">
      <rect width="156.664" height="107.923" fill="white"/>
    </clipPath>
  </defs>
</svg>
