<svg width="265" height="120" viewBox="0 0 265 120" fill="none" xmlns="http://www.w3.org/2000/svg">
<g clip-path="url(#clip0_2110_876)">
<path d="M264.415 30.88L241.034 100.308L240.417 102.139L234.632 119.321H231.417V102.139H78.9371L91.049 66.2132H0L22.2986 0H163.099L152.691 30.88H264.415Z" fill="black"/>
<path d="M111.157 119.32L111.619 116.279H109.797L109.98 115.135H111.788L112.188 112.48H110.428L110.597 111.355H112.358L112.805 108.512H114.01L113.577 111.355H115.752L116.185 108.512H117.404L116.957 111.355H118.793L118.623 112.48H116.787L116.387 115.135H118.162L117.992 116.279H116.218L115.756 119.32H114.537L114.998 116.279H112.838L112.376 119.32H111.157ZM113.012 115.14H115.173L115.592 112.485H113.417L113.017 115.14H113.012Z" fill="black"/>
<path d="M123.048 119.51C122.507 119.51 122.097 119.35 121.81 119.025C121.523 118.701 121.382 118.235 121.382 117.627V112.609H120.102V111.437H121.382V108.829L122.724 108.18V111.437H124.668V112.609H122.724V117.18C122.724 117.557 122.789 117.83 122.921 118.004C123.053 118.178 123.26 118.263 123.543 118.263C123.905 118.263 124.296 118.126 124.715 117.844L124.559 119.157C124.329 119.28 124.089 119.369 123.839 119.425C123.59 119.482 123.326 119.51 123.048 119.51Z" fill="black"/>
<path d="M126.07 119.323V111.434H127.412V112.239C127.652 111.904 127.944 111.655 128.283 111.495C128.622 111.335 129.012 111.25 129.45 111.25C130.406 111.25 131.117 111.537 131.583 112.116C132.049 112.695 132.279 113.585 132.279 114.785V119.323H130.938V114.555C130.938 113.891 130.792 113.378 130.495 113.02C130.199 112.662 129.78 112.483 129.238 112.483C128.636 112.483 128.184 112.653 127.878 112.996C127.572 113.34 127.417 113.848 127.417 114.522V119.323H126.075H126.07Z" fill="black"/>
<path d="M138.033 119.511C137.313 119.511 136.692 119.332 136.165 118.979C135.637 118.626 135.237 118.136 134.955 117.51C134.672 116.889 134.531 116.173 134.531 115.373C134.531 114.502 134.677 113.763 134.969 113.146C135.261 112.53 135.67 112.064 136.198 111.739C136.72 111.414 137.337 111.254 138.033 111.254C138.627 111.254 139.168 111.386 139.662 111.649C140.157 111.913 140.552 112.322 140.848 112.878C141.145 113.433 141.291 114.139 141.291 115.006C141.291 115.128 141.291 115.274 141.282 115.434C141.272 115.594 141.263 115.764 141.249 115.933H135.906C135.958 116.413 136.075 116.832 136.259 117.19C136.442 117.548 136.687 117.83 136.993 118.037C137.299 118.24 137.652 118.343 138.066 118.343C138.401 118.343 138.711 118.282 138.999 118.164C139.286 118.047 139.549 117.863 139.799 117.618L140.585 118.498C140.293 118.79 139.926 119.035 139.493 119.228C139.06 119.421 138.575 119.515 138.038 119.515L138.033 119.511ZM135.887 114.756H139.931C139.931 114.309 139.855 113.909 139.709 113.556C139.563 113.203 139.347 112.925 139.064 112.727C138.782 112.525 138.438 112.426 138.029 112.426C137.459 112.426 136.97 112.61 136.56 112.981C136.151 113.353 135.925 113.942 135.882 114.756H135.887Z" fill="black"/>
<path d="M145.097 119.323L142.211 111.434H143.571L145.44 116.696C145.487 116.823 145.53 116.951 145.572 117.073C145.614 117.195 145.652 117.327 145.69 117.468C145.732 117.332 145.77 117.2 145.807 117.073C145.845 116.951 145.887 116.823 145.934 116.696L147.77 111.434H149.112L146.226 119.323H145.101H145.097Z" fill="black"/>
<path d="M151.055 119.324V111.434H152.396V112.47C152.575 112.07 152.825 111.764 153.14 111.557C153.455 111.35 153.832 111.246 154.265 111.246C154.745 111.246 155.15 111.378 155.484 111.646L155.282 112.912C155.112 112.795 154.934 112.71 154.755 112.654C154.576 112.597 154.373 112.574 154.157 112.574C153.804 112.574 153.493 112.668 153.229 112.861C152.966 113.049 152.763 113.317 152.618 113.666C152.472 114.014 152.396 114.414 152.396 114.875V119.324H151.055Z" fill="black"/>
<path d="M159.713 119.511C158.993 119.511 158.372 119.332 157.844 118.979C157.317 118.626 156.917 118.136 156.635 117.51C156.352 116.889 156.211 116.173 156.211 115.373C156.211 114.502 156.357 113.763 156.649 113.146C156.941 112.53 157.35 112.064 157.877 111.739C158.4 111.414 159.017 111.254 159.713 111.254C160.306 111.254 160.848 111.386 161.342 111.649C161.836 111.913 162.232 112.322 162.528 112.878C162.825 113.433 162.971 114.139 162.971 115.006C162.971 115.128 162.971 115.274 162.961 115.434C162.952 115.594 162.942 115.764 162.928 115.933H157.585C157.637 116.413 157.755 116.832 157.939 117.19C158.122 117.548 158.367 117.83 158.673 118.037C158.979 118.24 159.332 118.343 159.746 118.343C160.08 118.343 160.391 118.282 160.678 118.164C160.965 118.047 161.229 117.863 161.478 117.618L162.265 118.498C161.973 118.79 161.606 119.035 161.172 119.228C160.739 119.421 160.255 119.515 159.718 119.515L159.713 119.511ZM157.567 114.756H161.61C161.61 114.309 161.535 113.909 161.389 113.556C161.243 113.203 161.027 112.925 160.744 112.727C160.462 112.525 160.118 112.426 159.708 112.426C159.139 112.426 158.649 112.61 158.24 112.981C157.83 113.353 157.604 113.942 157.562 114.756H157.567Z" fill="black"/>
<path d="M166.776 119.323L163.891 111.434H165.251L167.12 116.696C167.167 116.823 167.209 116.951 167.252 117.073C167.294 117.195 167.332 117.327 167.369 117.468C167.412 117.332 167.449 117.2 167.487 117.073C167.525 116.951 167.567 116.823 167.614 116.696L169.45 111.434H170.792L167.906 119.323H166.781H166.776Z" fill="black"/>
<path d="M175.527 119.51C174.445 119.51 173.592 119.143 172.971 118.404C172.35 117.664 172.039 116.662 172.039 115.391C172.039 114.544 172.18 113.809 172.463 113.193C172.745 112.576 173.15 112.096 173.673 111.761C174.195 111.423 174.812 111.258 175.527 111.258C176.243 111.258 176.869 111.423 177.391 111.757C177.914 112.091 178.314 112.562 178.596 113.183C178.879 113.8 179.015 114.534 179.015 115.381C179.015 116.229 178.874 116.963 178.592 117.584C178.309 118.206 177.904 118.681 177.382 119.015C176.859 119.35 176.243 119.519 175.527 119.519V119.51ZM175.527 118.258C176.191 118.258 176.713 118.003 177.09 117.49C177.467 116.977 177.66 116.271 177.66 115.372C177.66 114.473 177.471 113.757 177.09 113.249C176.713 112.741 176.191 112.486 175.527 112.486C174.863 112.486 174.336 112.741 173.96 113.249C173.583 113.757 173.395 114.468 173.395 115.391C173.395 116.313 173.583 116.996 173.96 117.504C174.336 118.013 174.859 118.267 175.527 118.267V118.258Z" fill="black"/>
<path d="M181.188 119.323V108.807L182.529 108.176V119.323H181.188Z" fill="black"/>
<path d="M187.95 119.512C186.975 119.512 186.255 119.225 185.784 118.646C185.313 118.072 185.078 117.187 185.078 115.991V111.434H186.42V116.189C186.42 116.857 186.566 117.37 186.862 117.723C187.154 118.076 187.573 118.255 188.119 118.255C188.722 118.255 189.173 118.081 189.479 117.737C189.785 117.394 189.941 116.885 189.941 116.217V111.43H191.282V119.319H189.941V118.561C189.687 118.886 189.404 119.121 189.089 119.277C188.773 119.432 188.392 119.503 187.95 119.503V119.512Z" fill="black"/>
<path d="M196.041 119.51C195.499 119.51 195.09 119.35 194.803 119.025C194.515 118.701 194.374 118.235 194.374 117.627V112.609H193.094V111.437H194.374V108.829L195.716 108.18V111.437H197.66V112.609H195.716V117.18C195.716 117.557 195.782 117.83 195.913 118.004C196.045 118.178 196.252 118.263 196.535 118.263C196.897 118.263 197.288 118.126 197.707 117.844L197.552 119.157C197.321 119.28 197.081 119.369 196.831 119.425C196.582 119.482 196.318 119.51 196.041 119.51Z" fill="black"/>
<path d="M200.06 109.999C199.829 109.999 199.631 109.919 199.471 109.755C199.311 109.594 199.227 109.397 199.227 109.166C199.227 108.935 199.307 108.719 199.471 108.554C199.631 108.385 199.829 108.305 200.06 108.305C200.29 108.305 200.502 108.389 200.667 108.554C200.827 108.719 200.912 108.926 200.912 109.166C200.912 109.406 200.832 109.594 200.667 109.755C200.502 109.915 200.305 109.999 200.06 109.999ZM199.396 119.325V111.435H200.738V119.325H199.396Z" fill="black"/>
<path d="M206.332 119.51C205.249 119.51 204.397 119.143 203.776 118.404C203.154 117.664 202.844 116.662 202.844 115.391C202.844 114.544 202.985 113.809 203.267 113.193C203.55 112.576 203.955 112.096 204.477 111.761C205 111.423 205.616 111.258 206.332 111.258C207.047 111.258 207.673 111.423 208.196 111.757C208.718 112.091 209.119 112.562 209.401 113.183C209.683 113.8 209.82 114.534 209.82 115.381C209.82 116.229 209.679 116.963 209.396 117.584C209.114 118.206 208.709 118.681 208.187 119.015C207.664 119.35 207.047 119.519 206.332 119.519V119.51ZM206.332 118.258C206.996 118.258 207.518 118.003 207.895 117.49C208.271 116.977 208.464 116.271 208.464 115.372C208.464 114.473 208.276 113.757 207.895 113.249C207.518 112.741 206.996 112.486 206.332 112.486C205.668 112.486 205.141 112.741 204.764 113.249C204.388 113.757 204.199 114.468 204.199 115.391C204.199 116.313 204.388 116.996 204.764 117.504C205.141 118.013 205.663 118.267 206.332 118.267V118.258Z" fill="black"/>
<path d="M211.844 119.323V111.434H213.185V112.239C213.425 111.904 213.717 111.655 214.056 111.495C214.395 111.335 214.786 111.25 215.224 111.25C216.179 111.25 216.89 111.537 217.356 112.116C217.822 112.695 218.053 113.585 218.053 114.785V119.323H216.711V114.555C216.711 113.891 216.565 113.378 216.269 113.02C215.972 112.662 215.553 112.483 215.012 112.483C214.409 112.483 213.957 112.653 213.651 112.996C213.345 113.34 213.19 113.848 213.19 114.522V119.323H211.848H211.844Z" fill="black"/>
<path d="M50.1429 11.0078C44.5882 11.0078 39.8762 12.3588 36.1433 15.0232C32.8905 17.3439 30.5557 20.526 29.2047 24.4802L26.4462 32.4826L24.8128 37.2605C23.297 41.6996 27.2417 45.3101 32.2645 45.3101C40.2716 45.3101 46.6642 41.6996 48.1799 37.2605L49.8134 32.4826C51.3291 28.0436 47.3844 24.4331 42.3617 24.4331C41.5143 24.4331 39.1466 24.5367 38.2522 24.7249L38.3369 24.4802C39.1701 22.0465 40.4505 20.1965 42.1498 18.982C44.1787 17.5369 47.069 16.8025 50.7407 16.8025H57.651L48.1893 44.5051H58.8844L68.3461 16.8025H72.3473L74.3244 11.0078H50.1382H50.1429ZM38.8971 30.2278C40.2999 30.2278 41.1001 31.2399 40.6764 32.4826L39.043 37.2605C38.6193 38.5033 37.1318 39.5154 35.7243 39.5154C34.3168 39.5154 33.5213 38.5033 33.945 37.2605L35.5784 32.4826C36.0021 31.2399 37.4896 30.2278 38.8971 30.2278Z" fill="white"/>
<path d="M96.6581 11.0078L94.681 16.8025H92.8828L95.453 11.0078H96.6581Z" fill="white"/>
<path d="M80.3347 11.0078L78.3576 16.8025H76.5547L79.1296 11.0078H80.3347Z" fill="white"/>
<path d="M62.6706 38.7109L60.0957 44.5057H58.8906L60.8677 38.7109H62.6706Z" fill="white"/>
<path d="M127.127 10.0391C120.819 10.0391 111.917 12.3974 110.016 17.9709L102.936 38.7067H97.6589L107.116 11.0041H96.4962L85.0574 44.5014H100.954L99.9937 47.3163C99.5653 48.5779 98.0543 49.5994 96.628 49.5994H84.9962C80.9102 49.5994 78.1235 48.9969 79.5121 44.2001L90.8474 11.0041H80.2276L68.8877 44.2142C67.1837 49.2087 68.6618 55.3941 79.3333 55.3941H95.7383C97.7201 55.3941 99.7442 54.8339 101.571 53.8831C102.747 54.8339 104.39 55.3941 106.372 55.3941L121.097 55.3517L123.078 49.557L109.823 49.5994C108.999 49.5947 108.443 48.7427 108.745 47.9754L110.091 44.5014H116.455C122.763 44.5014 129.443 39.9682 131.344 34.3947L136.207 20.1457C138.114 14.5722 133.435 10.0391 127.131 10.0391H127.127ZM127.07 20.1504L122.208 34.3995C121.393 36.7767 118.545 38.7114 115.857 38.7114H112.073L118.409 20.1504C119.223 17.7732 120.979 15.8385 123.667 15.8385C126.355 15.8385 127.885 17.7732 127.07 20.1504Z" fill="white"/>
<path d="M220.792 41.7559L215.845 47.5506H207.457L207.866 46.3502H206.266L211.218 40.5508H219.606L219.192 41.7559H220.792Z" fill="white"/>
<path d="M171.495 52.4741L160.098 86.2397H149.479L160.951 52.2481C161.195 51.6409 161.304 51.1042 161.304 50.6382C161.304 48.1104 158.296 47.0606 154.511 47.5455C150.529 48.0586 147.059 50.7135 146.207 52.4976C146.334 52.5447 140.676 52.0316 138.562 52.2575C142.644 45.1683 150.853 41.1953 160.565 41.1953C167.418 41.1953 174.456 44.4057 171.495 52.4741Z" fill="white"/>
<path d="M218.2 52.7422C216.359 52.7422 213.012 53.0152 211.191 53.5189C209.712 53.0152 206.549 52.7422 204.709 52.7422H192.079C183.676 52.7422 174.77 58.7864 172.233 66.2145L169.705 73.6097C169.663 73.7133 169.625 73.8169 169.587 73.9204L167.954 78.6984C166.438 83.1374 171.87 86.7479 176.888 86.7479C183.54 86.7479 188.511 84.2577 190.37 80.8684C191.175 84.3189 194.842 86.7479 199.352 86.7479C206.323 86.7479 213.958 84.2248 216.576 77.0696L220.078 67.0666C221.17 63.875 220.991 60.9188 219.796 58.5369H226.621L217.159 86.2395H227.779L237.241 58.5369H239.999L241.976 52.7422H218.19H218.2ZM183.817 73.9251L182.184 78.7031C181.76 79.9458 180.273 80.9579 178.865 80.9579C177.458 80.9579 176.662 79.9458 177.086 78.7031L178.719 73.9251C179.143 72.6824 180.631 71.675 182.038 71.675C183.446 71.675 184.241 72.6871 183.817 73.9251ZM192.987 70.3099C192.065 67.6832 187.569 65.8756 184.015 65.8756C183.168 65.8756 182.278 65.9792 181.379 66.1722C182.843 61.9591 187.899 58.5369 192.672 58.5369H200.237C197.417 60.9188 195.223 63.8703 194.131 67.0572L192.987 70.3099Z" fill="white"/>
<path d="M113.249 52.7578L111.267 58.5525H109.469L111.451 52.7578H113.249Z" fill="white"/>
<path d="M163.85 80.4453L161.275 86.24H160.07L162.047 80.4453H163.85Z" fill="white"/>
<path d="M231.397 80.4453L228.822 86.24H227.617L229.599 80.4453H231.397Z" fill="white"/>
<path d="M143.722 51.7852C137.415 51.7852 128.513 54.1435 126.611 59.717L119.532 80.4527H114.25L123.707 52.7502H113.087L101.648 86.2475H133.042C139.349 86.2475 146.029 81.7143 147.931 76.1408L152.793 61.8918C154.7 56.3183 150.021 51.7852 143.718 51.7852H143.722ZM143.661 61.8965L138.799 76.1455C137.984 78.5227 135.136 80.4575 132.448 80.4575H128.664L135 61.8965C135.814 59.5193 137.57 57.5846 140.258 57.5846C142.946 57.5846 144.476 59.5193 143.661 61.8965Z" fill="white"/>
<path d="M205.177 72.3243H197.758L206.97 58.5742H209.973L205.177 72.3243Z" fill="black"/>
<path d="M203.686 80.3946H200.688L205.239 66.6445H212.903L203.686 80.3946Z" fill="black"/>
</g>
<defs>
<clipPath id="clip0_2110_876">
<rect width="264.415" height="119.509" fill="white"/>
</clipPath>
</defs>
</svg>
